<?xml version="1.0" encoding="utf-8"?>
<!-- Generator: Adobe Illustrator 16.0.4, SVG Export Plug-In . SVG Version: 6.00 Build 0)  -->
<!DOCTYPE svg PUBLIC "-//W3C//DTD SVG 1.1//EN" "http://www.w3.org/Graphics/SVG/1.1/DTD/svg11.dtd">
<svg version="1.1" id="Layer_1" xmlns="http://www.w3.org/2000/svg" xmlns:xlink="http://www.w3.org/1999/xlink" x="0px" y="0px"
	 width="612px" height="792px" viewBox="0 0 612 792" enable-background="new 0 0 612 792" xml:space="preserve">
<g>
	<g>
		<g>
			<path fill="#CB2027" d="M214.166,394.513c0,0-0.113,2.513-0.312,6.905c-0.047,1.095-0.1,2.306-0.158,3.625
				c0.051,1.042,0.104,2.17,0.163,3.372c0.041,1.227,0.082,2.528,0.126,3.904c-0.011,1.369,0.387,2.988,0.569,4.595
				c0.234,1.64,0.476,3.348,0.729,5.116c0.433,1.734,0.881,3.53,1.341,5.372c0.229,0.934,0.459,1.879,0.692,2.836
				c0.271,0.948,0.652,1.864,0.979,2.818c0.679,1.918,1.373,3.875,2.077,5.863c1.873,3.758,3.482,7.931,5.969,11.689
				c2.149,4.005,5.051,7.571,7.787,11.37c3.121,3.413,6.111,7.093,9.667,10.079c3.303,3.327,7.149,5.834,10.708,8.618
				c1.92,1.174,3.808,2.325,5.654,3.452c0.937,0.554,1.84,1.164,2.78,1.662c0.961,0.459,1.907,0.918,2.843,1.365
				c1.888,0.91,3.722,1.796,5.497,2.651c1.854,0.679,3.648,1.335,5.368,1.963c1.739,0.583,3.378,1.34,5.014,1.714
				c1.637,0.415,3.189,0.808,4.648,1.176c1.471,0.374,2.849,0.721,4.122,1.044c1.295,0.194,2.486,0.371,3.562,0.532
				c4.346,0.637,6.828,1.003,6.828,1.003s-2.514,0.112-6.915,0.311c-1.112,0.046-2.341,0.1-3.68,0.153
				c-1.334-0.075-2.779-0.156-4.321-0.242c-1.556-0.09-3.212-0.186-4.957-0.288c-1.761-0.062-3.545-0.5-5.458-0.757
				c-1.913-0.312-3.906-0.635-5.969-0.969c-2.023-0.532-4.118-1.084-6.269-1.652c-1.085-0.286-2.185-0.579-3.297-0.877
				c-1.101-0.33-2.17-0.783-3.28-1.178c-2.221-0.832-4.489-1.682-6.795-2.546c-4.379-2.207-9.172-4.209-13.52-7.139
				c-4.6-2.588-8.734-5.979-13.063-9.243c-3.94-3.652-8.11-7.21-11.539-11.36c-3.766-3.895-6.666-8.36-9.788-12.539
				c-1.329-2.236-2.637-4.435-3.917-6.588c-0.625-1.09-1.303-2.148-1.863-3.243c-0.523-1.116-1.041-2.214-1.552-3.3
				c-1.016-2.195-2.004-4.332-2.961-6.396c-0.761-2.147-1.497-4.224-2.201-6.22c-0.658-2.046-1.455-3.853-1.902-5.875
				c-0.471-2.007-0.919-3.913-1.338-5.702c-0.401-1.81-0.777-3.506-1.124-5.073c-0.195-1.317-0.374-2.525-0.536-3.617
				c-0.639-4.351-1.003-6.836-1.003-6.836L214.166,394.513z"/>
			<g>
				<polygon fill="#CB2027" points="168.318,404.227 198.868,351.32 229.419,404.227 				"/>
			</g>
		</g>
		<g>
			<path fill="#991B1E" d="M300.051,481.943c0,0,2.51,0.11,6.904,0.308c1.096,0.049,2.307,0.103,3.624,0.158
				c1.044-0.048,2.169-0.104,3.372-0.161c1.225-0.039,2.527-0.08,3.902-0.126c1.373,0.009,2.988-0.386,4.597-0.569
				c1.64-0.232,3.347-0.479,5.113-0.729c1.737-0.433,3.53-0.879,5.375-1.34c0.935-0.228,1.88-0.46,2.837-0.694
				c0.946-0.269,1.863-0.651,2.817-0.978c1.916-0.68,3.873-1.373,5.862-2.076c3.759-1.873,7.932-3.482,11.688-5.968
				c4.007-2.151,7.572-5.054,11.373-7.788c3.411-3.123,7.091-6.111,10.078-9.668c3.324-3.304,5.833-7.151,8.618-10.707
				c1.172-1.922,2.323-3.809,3.451-5.654c0.556-0.937,1.166-1.84,1.66-2.782c0.463-0.957,0.919-1.906,1.369-2.842
				c0.91-1.885,1.795-3.723,2.65-5.496c0.68-1.855,1.334-3.647,1.963-5.367c0.585-1.741,1.342-3.381,1.714-5.018
				c0.414-1.636,0.809-3.188,1.177-4.645c0.372-1.473,0.721-2.849,1.043-4.123c0.192-1.296,0.371-2.486,0.531-3.562
				c0.639-4.345,1.003-6.828,1.003-6.828s0.113,2.517,0.311,6.917c0.047,1.109,0.098,2.34,0.156,3.677
				c-0.077,1.337-0.157,2.779-0.246,4.323c-0.091,1.556-0.186,3.213-0.285,4.957c-0.064,1.759-0.502,3.545-0.76,5.46
				c-0.31,1.911-0.632,3.904-0.967,5.965c-0.533,2.025-1.085,4.119-1.652,6.271c-0.287,1.086-0.58,2.184-0.876,3.296
				c-0.334,1.102-0.784,2.17-1.181,3.282c-0.831,2.22-1.679,4.488-2.543,6.795c-2.21,4.38-4.212,9.168-7.138,13.519
				c-2.59,4.598-5.982,8.732-9.246,13.062c-3.652,3.943-7.211,8.11-11.359,11.541c-3.895,3.765-8.36,6.665-12.538,9.786
				c-2.236,1.33-4.438,2.639-6.59,3.918c-1.09,0.625-2.147,1.302-3.242,1.865c-1.114,0.522-2.216,1.04-3.302,1.549
				c-2.194,1.018-4.329,2.008-6.393,2.963c-2.149,0.759-4.228,1.494-6.222,2.2c-2.046,0.659-3.852,1.454-5.877,1.903
				c-2.007,0.47-3.911,0.918-5.7,1.337c-1.811,0.401-3.506,0.778-5.073,1.125c-1.315,0.194-2.523,0.374-3.615,0.535
				c-4.352,0.637-6.84,1.003-6.84,1.003L300.051,481.943z"/>
			<g>
				<polygon fill="#991B1E" points="309.764,527.789 256.856,497.239 309.764,466.688 				"/>
			</g>
		</g>
		<g>
			<path fill="#CB2027" d="M387.479,396.062c0,0,0.114-2.514,0.312-6.908c0.047-1.092,0.1-2.304,0.159-3.623
				c-0.052-1.044-0.105-2.169-0.164-3.372c-0.041-1.227-0.082-2.528-0.127-3.904c0.013-1.374-0.386-2.989-0.568-4.596
				c-0.234-1.64-0.478-3.348-0.729-5.115c-0.433-1.735-0.881-3.53-1.342-5.374c-0.228-0.933-0.457-1.881-0.692-2.838
				c-0.269-0.946-0.651-1.861-0.978-2.818c-0.679-1.915-1.372-3.871-2.078-5.861c-1.873-3.76-3.48-7.934-5.969-11.688
				c-2.149-4.006-5.051-7.575-7.786-11.374c-3.122-3.412-6.114-7.091-9.669-10.079c-3.303-3.325-7.15-5.833-10.709-8.619
				c-1.92-1.171-3.807-2.323-5.654-3.451c-0.937-0.554-1.84-1.165-2.781-1.66c-0.96-0.462-1.906-0.918-2.842-1.369
				c-1.888-0.909-3.723-1.794-5.499-2.65c-1.854-0.679-3.646-1.334-5.366-1.962c-1.741-0.585-3.38-1.342-5.016-1.714
				c-1.636-0.414-3.188-0.808-4.647-1.177c-1.472-0.373-2.848-0.721-4.122-1.042c-1.296-0.194-2.486-0.371-3.562-0.531
				c-4.345-0.639-6.827-1.004-6.827-1.004s2.514-0.112,6.915-0.309c1.111-0.049,2.34-0.099,3.68-0.156
				c1.336,0.077,2.778,0.157,4.323,0.246c1.555,0.09,3.211,0.185,4.955,0.286c1.761,0.064,3.546,0.501,5.459,0.758
				c1.913,0.31,3.905,0.633,5.968,0.968c2.024,0.532,4.118,1.085,6.271,1.651c1.084,0.287,2.183,0.58,3.296,0.876
				c1.1,0.333,2.171,0.784,3.28,1.181c2.222,0.83,4.488,1.68,6.797,2.544c4.379,2.209,9.171,4.21,13.518,7.136
				c4.601,2.591,8.735,5.982,13.065,9.247c3.94,3.651,8.109,7.212,11.54,11.36c3.764,3.895,6.665,8.36,9.786,12.539
				c1.33,2.238,2.638,4.437,3.918,6.588c0.625,1.092,1.303,2.148,1.863,3.243c0.524,1.116,1.042,2.217,1.551,3.303
				c1.019,2.196,2.006,4.329,2.962,6.393c0.763,2.151,1.496,4.227,2.202,6.222c0.659,2.046,1.456,3.85,1.902,5.875
				c0.472,2.008,0.92,3.913,1.338,5.703c0.403,1.81,0.778,3.506,1.125,5.073c0.194,1.316,0.374,2.525,0.535,3.617
				c0.639,4.35,1.004,6.835,1.004,6.835L387.479,396.062z"/>
			<g>
				<polygon fill="#CB2027" points="433.327,386.349 402.777,439.256 372.226,386.349 				"/>
			</g>
		</g>
		<g>
			<path fill="#991B1E" d="M301.595,308.631c0,0-2.51-0.114-6.904-0.311c-1.094-0.048-2.306-0.101-3.626-0.159
				c-1.04,0.051-2.167,0.104-3.371,0.163c-1.224,0.041-2.527,0.082-3.902,0.126c-1.371-0.011-2.988,0.387-4.597,0.569
				c-1.64,0.233-3.348,0.477-5.114,0.729c-1.735,0.432-3.529,0.881-5.374,1.34c-0.934,0.229-1.879,0.459-2.836,0.694
				c-0.947,0.269-1.864,0.652-2.818,0.977c-1.916,0.679-3.872,1.373-5.863,2.079c-3.758,1.871-7.931,3.48-11.688,5.968
				c-4.006,2.148-7.573,5.051-11.372,7.786c-3.412,3.122-7.092,6.113-10.079,9.668c-3.325,3.303-5.833,7.15-8.619,10.71
				c-1.171,1.917-2.323,3.805-3.451,5.654c-0.554,0.936-1.164,1.84-1.66,2.779c-0.462,0.96-0.918,1.909-1.368,2.842
				c-0.909,1.888-1.795,3.722-2.65,5.499c-0.68,1.854-1.334,3.646-1.963,5.367c-0.585,1.742-1.342,3.377-1.714,5.017
				c-0.415,1.633-0.808,3.186-1.177,4.646c-0.373,1.472-0.722,2.848-1.044,4.123c-0.192,1.295-0.37,2.485-0.53,3.563
				c-0.639,4.344-1.004,6.826-1.004,6.826s-0.112-2.516-0.31-6.916c-0.048-1.11-0.099-2.339-0.155-3.677
				c0.076-1.337,0.157-2.779,0.245-4.323c0.09-1.556,0.186-3.213,0.286-4.958c0.064-1.762,0.501-3.545,0.758-5.459
				c0.31-1.912,0.633-3.904,0.968-5.968c0.533-2.022,1.085-4.116,1.651-6.267c0.287-1.086,0.58-2.184,0.875-3.297
				c0.335-1.101,0.784-2.172,1.182-3.282c0.832-2.22,1.681-4.491,2.545-6.797c2.209-4.377,4.21-9.17,7.136-13.518
				c2.592-4.6,5.984-8.735,9.247-13.063c3.653-3.943,7.212-8.112,11.359-11.54c3.896-3.765,8.361-6.667,12.539-9.787
				c2.236-1.33,4.438-2.639,6.59-3.919c1.09-0.625,2.148-1.303,3.243-1.862c1.113-0.525,2.215-1.041,3.301-1.553
				c2.194-1.016,4.328-2.004,6.395-2.96c2.149-0.761,4.226-1.495,6.219-2.202c2.047-0.658,3.854-1.456,5.878-1.903
				c2.009-0.471,3.913-0.918,5.702-1.337c1.811-0.402,3.506-0.777,5.073-1.125c1.315-0.195,2.524-0.374,3.616-0.536
				c4.352-0.639,6.838-1.003,6.838-1.003L301.595,308.631z"/>
			<g>
				<polygon fill="#991B1E" points="291.884,262.783 344.79,293.333 291.884,323.883 				"/>
			</g>
		</g>
		<g>
			<path fill="#CB2027" d="M214.186,395.192c0,0-0.949,1.869-2.375,4.673c-0.675,1.196-1.462,2.594-2.304,4.089
				c-0.383,0.686-0.78,1.389-1.181,2.106c-0.373,0.682-0.676,1.241-1.035,1.978c-0.373,0.736-0.49,1.31-0.744,2.085
				c-0.295,0.76-0.205,1.528-0.272,2.343c-0.075,0.813-0.005,1.654,0.166,2.456c0.145,0.828,0.284,1.615,0.411,2.339
				c0.781,2.905,1.445,4.945,1.445,4.945s-1.954-0.613-5.018-1.762c-0.757-0.356-1.576-0.745-2.442-1.155
				c-0.899-0.397-1.82-0.918-2.751-1.637c-0.918-0.703-2.016-1.349-2.875-2.354c-0.865-0.946-1.946-2.014-2.665-3.117
				c-0.741-1.086-1.557-2.327-2.197-3.455c-0.588-1.107-1.167-2.199-1.728-3.256c-0.973-1.992-1.881-3.85-2.658-5.444
				c-1.447-2.785-2.411-4.643-2.411-4.643L214.186,395.192z"/>
			<g>
				<polygon fill="#CB2027" points="168.318,404.227 198.868,351.32 229.419,404.227 				"/>
			</g>
		</g>
	</g>
	<g>
		<path stroke="#000000" stroke-miterlimit="10" d="M424.021,477.777c0,4.716-2.629,8.537-5.872,8.537h-71.392
			c-3.242,0-5.871-3.821-5.871-8.537v-12.805c0-4.714,2.629-8.537,5.871-8.537h71.392c3.243,0,5.872,3.823,5.872,8.537V477.777z"/>
		<text transform="matrix(1 0 0 1 364.8135 467.5371)"><tspan x="0" y="0" fill="#FFFFFF" font-family="'Verdana-Bold'" font-size="12">Trust</tspan><tspan x="-20.396" y="14.4" fill="#FFFFFF" font-family="'Verdana-Bold'" font-size="12">Breakdown</tspan></text>
	</g>
	<g>
		<path stroke="#000000" stroke-miterlimit="10" d="M446.108,339.435c0,5.155-4.025,9.333-8.992,9.333H327.791
			c-4.966,0-8.991-4.178-8.991-9.333v-14.002c0-5.153,4.025-9.333,8.991-9.333h109.325c4.967,0,8.992,4.18,8.992,9.333V339.435z"/>
		<text transform="matrix(1 0 0 1 358.5215 328.5952)"><tspan x="0" y="0" fill="#FFFFFF" font-family="'Verdana-Bold'" font-size="12">Deliver</tspan><tspan x="-38.031" y="14.4" fill="#FFFFFF" font-family="'Verdana-Bold'" font-size="12">Wrong Thing/Late</tspan></text>
	</g>
	<g>
		<path stroke="#000000" stroke-miterlimit="10" d="M260.865,327.104c0,5.277-2.29,9.558-5.113,9.558h-62.174
			c-2.824,0-5.113-4.28-5.113-9.558v-14.335c0-5.275,2.289-9.555,5.113-9.555h62.174c2.823,0,5.113,4.28,5.113,9.555V327.104z"/>
		<g>
			<text transform="matrix(1 0 0 1 194.8345 316.0996)"><tspan x="0" y="0" fill="#FFFFFF" font-family="'Verdana-Bold'" font-size="12">Focus on</tspan><tspan x="-0.727" y="14.4" fill="#FFFFFF" font-family="'Verdana-Bold'" font-size="12">Schedule</tspan></text>
		</g>
	</g>
	<g>
		<path stroke="#000000" stroke-miterlimit="10" d="M286.398,457.824c0,4.896-3.904,8.864-8.721,8.864H171.652
			c-4.816,0-8.721-3.969-8.721-8.864v-13.3c0-4.895,3.904-8.865,8.721-8.865h106.025c4.816,0,8.721,3.971,8.721,8.865V457.824z"/>
		<text transform="matrix(1 0 0 1 171.5205 447.335)"><tspan x="0" y="0" fill="#FFFFFF" font-family="'Verdana-Bold'" font-size="12">Scope and Time</tspan><tspan x="6.302" y="14.4" fill="#FFFFFF" font-family="'Verdana-Bold'" font-size="12">Commitments</tspan></text>
	</g>
</g>
</svg>
