<?xml version="1.0" encoding="UTF-8"?>
<!-- Generator: Adobe Illustrator 16.0.0, SVG Export Plug-In . SVG Version: 6.00 Build 0)  -->
<!DOCTYPE svg PUBLIC "-//W3C//DTD SVG 1.1//EN" "http://www.w3.org/Graphics/SVG/1.1/DTD/svg11.dtd">
<svg version="1.1" id="Layer_1" xmlns="http://www.w3.org/2000/svg" xmlns:xlink="http://www.w3.org/1999/xlink" x="0px" y="0px" width="53.345px" height="100px" viewBox="0 0 53.345 100" enable-background="new 0 0 53.345 100" xml:space="preserve">
<path fill="#010101" d="M26.599,0.22c-4.028,0-7.281,4.893-7.281,10.901c0,6.01,3.253,10.863,7.281,10.863  c4.027,0,7.281-4.853,7.281-10.863C33.879,5.112,30.625,0.22,26.599,0.22z M26.599,17.379c-2.43,0-4.408-2.948-4.408-6.572  c0-3.625,1.978-6.573,4.408-6.573c2.428,0,4.407,2.948,4.407,6.573C31.005,14.431,29.027,17.379,26.599,17.379z"/>
<rect x="23.822" y="26.674" fill="#010101" width="5.551" height="21.764"/>
<rect x="23.822" y="52.899" fill="#010101" width="5.551" height="21.765"/>
<path fill="#010101" d="M26.599,78.015c-4.028,0-7.281,4.892-7.281,10.902c0,6.009,3.253,10.861,7.281,10.861  c4.027,0,7.281-4.853,7.281-10.861C33.879,82.907,30.625,78.015,26.599,78.015z M26.599,95.174c-2.43,0-4.408-2.947-4.408-6.572  s1.978-6.572,4.408-6.572c2.428,0,4.407,2.947,4.407,6.572S29.027,95.174,26.599,95.174z"/>
<rect x="43.289" y="0.227" fill="#010101" width="5.553" height="21.764"/>
<path fill="#010101" d="M46.065,48.43c4.027,0,7.28-4.853,7.28-10.862c0-6.009-3.253-10.902-7.28-10.902s-7.28,4.893-7.28,10.902  C38.785,43.577,42.038,48.43,46.065,48.43z M46.065,30.681c2.43,0,4.408,2.948,4.408,6.572s-1.979,6.572-4.408,6.572  s-4.407-2.948-4.407-6.572S43.635,30.681,46.065,30.681z"/>
<rect x="43.289" y="52.67" fill="#010101" width="5.553" height="21.764"/>
<path fill="#010101" d="M46.065,78.009c-4.027,0-7.28,4.891-7.28,10.9c0,6.011,3.253,10.863,7.28,10.863s7.28-4.853,7.28-10.863  C53.345,82.901,50.092,78.009,46.065,78.009z M46.065,95.168c-2.43,0-4.407-2.948-4.407-6.572c0-3.625,1.978-6.573,4.407-6.573  s4.408,2.948,4.408,6.573C50.473,92.22,48.495,95.168,46.065,95.168z"/>
<rect x="4.505" y="78.236" fill="#010101" width="5.552" height="21.764"/>
<path fill="#010101" d="M7.281,52.453C3.253,52.453,0,57.346,0,63.354c0,6.01,3.253,10.862,7.281,10.862  c4.027,0,7.281-4.853,7.281-10.862C14.562,57.346,11.308,52.453,7.281,52.453z M7.281,69.612c-2.43,0-4.408-2.947-4.408-6.572  s1.978-6.572,4.408-6.572c2.429,0,4.408,2.947,4.408,6.572S9.71,69.612,7.281,69.612z"/>
<path fill="#010101" d="M7.281,26.004C3.253,26.004,0,30.896,0,36.906c0,6.009,3.253,10.862,7.281,10.862  c4.027,0,7.281-4.853,7.281-10.862C14.562,30.896,11.308,26.004,7.281,26.004z M7.281,43.164c-2.43,0-4.408-2.948-4.408-6.573  c0-3.625,1.978-6.572,4.408-6.572c2.429,0,4.408,2.948,4.408,6.572C11.688,40.216,9.71,43.164,7.281,43.164z"/>
<path fill="#010101" d="M7.281,0C3.253,0,0,4.892,0,10.901c0,6.01,3.253,10.863,7.281,10.863c4.027,0,7.281-4.853,7.281-10.863  C14.562,4.892,11.308,0,7.281,0z M7.281,17.159c-2.43,0-4.408-2.948-4.408-6.573c0-3.625,1.978-6.572,4.408-6.572  c2.429,0,4.408,2.948,4.408,6.572C11.688,14.211,9.71,17.159,7.281,17.159z"/>
</svg>