<svg xmlns="http://www.w3.org/2000/svg" xmlns:xlink="http://www.w3.org/1999/xlink" version="1.1" id="Layer_1" x="0px" y="0px" width="90px" height="90px" viewBox="0 0 90 90" enable-background="new 0 0 90 90" xml:space="preserve">
<g>
	<path d="M26.2,21.257c5.726,0.036,10.387-4.605,10.424-10.324C36.645,5.191,32.01,0.519,26.283,0.5   c-5.742-0.025-10.404,4.595-10.42,10.323C15.835,16.574,20.449,21.247,26.2,21.257z"/>
	<path d="M18.76,25.513c0.053-0.062,0.11-0.121,0.164-0.181l-7.136-7.137l-2.826,2.826l7.882,7.882   C17.262,27.66,17.902,26.514,18.76,25.513z"/>
	<path d="M38.721,43.346c1.19,1.219,2.919,1.879,4.736,1.623l18.027-2.547c1.546-0.218,2.85-1.058,3.701-2.229l-2.435,6.533   c-0.396,1.065,0.146,2.25,1.21,2.646c1.064,0.397,2.25-0.145,2.646-1.21l6.879-18.464c0.396-1.065-0.146-2.25-1.21-2.646   c-1.064-0.397-2.25,0.145-2.646,1.21l-3.407,9.145c0.035-0.406,0.028-0.821-0.031-1.242c-0.427-3.027-3.229-5.135-6.257-4.708   l-14.844,2.097l-10.983-7.159c-5.429-6.544-17.726-2.376-16.13,7.843l5.476,27.359c0.044,0.223,0.096,0.444,0.154,0.663   l15.748-15.748L38.721,43.346z"/>
	<path d="M82.136,80.049l-23.97-23.97c-1.066-1.066-2.461-1.604-3.859-1.618c0.034-0.012,0.066-0.025,0.1-0.036l-13.472-0.021   l-0.637-3.181L25.519,66.003c1.629,1.966,4.098,3.296,7.283,3.296h22.198l0.74,0.014l18.566,18.566c2.162,2.161,5.668,2.161,7.83,0   C84.298,85.717,84.298,82.211,82.136,80.049z"/>
	<path d="M19.838,66.031c-0.359-0.816-0.636-1.671-0.813-2.552l-3.898-20.981c-1.21-6.682-10-5.09-8.766,1.601l3.768,20.879   c1.451,7.571,6.959,14.111,14.875,16.478c2.039,0.592,4.118,0.896,6.147,0.896l13.384,0.059c6.792,0.028,6.837-8.888,0.078-8.836   l-12.717-0.07c-1.394-0.104-2.843-0.155-4.253-0.577c-2.218-0.661-4.109-1.891-5.569-3.478l3.446-3.446   c-0.903-1.091-1.547-2.376-1.911-3.741L19.838,66.031z"/>
</g>
</svg>