<svg xmlns="http://www.w3.org/2000/svg" xmlns:xlink="http://www.w3.org/1999/xlink" version="1.1" x="0px" y="0px" width="100px" height="100px" viewBox="-346 256 100 100" enable-background="new -346 256 100 100" xml:space="preserve">
<g id="Layer_1">
	<g id="Layer_1_4_">
		<path d="M-285.013,310.449c2.1,0,3.812-1.706,3.812-3.808c0-2.11-1.709-3.82-3.812-3.82c-2.11,0-3.816,1.707-3.816,3.82    C-288.829,308.743-287.123,310.449-285.013,310.449z"/>
	</g>
</g>
<g id="Layer_2">
	<path d="M-267.973,330.447c1.54-1.509,3.411-2.274,5.565-2.274c2.216,0,4.123,0.766,5.671,2.274   c1.544,1.522,2.329,3.412,2.329,5.621c0,2.155-0.783,4.031-2.329,5.573c-1.544,1.548-3.451,2.333-5.671,2.333   c-2.154,0-4.031-0.785-5.571-2.332c-1.542-1.541-2.327-3.415-2.327-5.574C-270.306,333.856-269.521,331.966-267.973,330.447z    M-264.75,338.425c0.647,0.651,1.431,0.968,2.343,0.968c0.914,0,1.695-0.316,2.347-0.968c0.651-0.654,0.975-1.433,0.975-2.356   c0-0.905-0.323-1.685-0.975-2.336c-0.651-0.653-1.433-0.986-2.347-0.986c-0.912,0-1.695,0.333-2.343,0.986   c-0.651,0.651-0.978,1.431-0.978,2.336C-265.728,336.992-265.401,337.771-264.75,338.425z"/>
	<path d="M-308.097,330.447c-1.54-1.509-3.412-2.274-5.566-2.274c-2.215,0-4.123,0.766-5.671,2.274   c-1.543,1.522-2.329,3.412-2.329,5.621c0,2.155,0.783,4.031,2.329,5.573c1.544,1.548,3.451,2.333,5.671,2.333   c2.154,0,4.03-0.785,5.57-2.332c1.544-1.541,2.327-3.415,2.327-5.574C-305.766,333.856-306.548,331.966-308.097,330.447z    M-311.321,338.425c-0.647,0.651-1.429,0.968-2.342,0.968c-0.914,0-1.695-0.316-2.346-0.968c-0.653-0.654-0.976-1.433-0.976-2.356   c0-0.905,0.323-1.685,0.976-2.336c0.651-0.653,1.433-0.986,2.346-0.986c0.913,0,1.695,0.333,2.342,0.986   c0.652,0.651,0.978,1.431,0.978,2.336C-310.343,336.992-310.669,337.771-311.321,338.425z"/>
	<g>
		<path d="M-334.388,296.438l-6.272-5.839c-0.319-0.245-0.546-0.551-0.68-0.915c-0.4-1.084-0.057-1.832,1.029-2.234    c0.723-0.266,1.423-0.091,2.11,0.525l6.333,5.818c1.471,1.376,3.169,1.708,5.101,0.995c0.482-0.178,0.974-0.449,1.479-0.819    l4.132-3.103c0.213-0.171,0.418-0.295,0.62-0.369c1.166-0.43,1.955-0.081,2.373,1.044c0.312,0.846,0.017,1.595-0.886,2.248    l-4.311,3.17c-0.716,0.537-1.456,0.948-2.22,1.23C-328.878,299.406-331.815,298.827-334.388,296.438z"/>
		<path d="M-337.982,276.067c-0.482,1.048-1.266,1.77-2.352,2.17c-1.084,0.402-2.155,0.351-3.209-0.149    c-1.055-0.502-1.781-1.296-2.183-2.381c-0.401-1.086-0.363-2.151,0.122-3.199c0.48-1.046,1.266-1.77,2.349-2.172    c1.089-0.4,2.154-0.351,3.211,0.15c1.053,0.501,1.777,1.275,2.162,2.322C-337.466,273.935-337.5,275.022-337.982,276.067z"/>
		<path d="M-339.704,282.421c-0.354-0.962-0.289-1.921,0.202-2.878c0.491-0.958,1.22-1.615,2.184-1.971    c1.248-0.461,2.395-0.2,3.442,0.781l7.266,6.493l7.277-5.333c0.158-0.073,0.321-0.139,0.485-0.198    c0.66-0.244,1.395-0.183,2.208,0.178c0.81,0.364,1.355,0.927,1.639,1.691l4.279,11.582c0.521,1.408,0.076,2.371-1.33,2.891    c-1.41,0.521-2.378,0.054-2.917-1.405l-3.14-8.496l-7.653,5.831c-0.329,0.225-0.65,0.396-0.973,0.515    c-1.357,0.501-2.615,0.23-3.773-0.812l-8.155-7.405C-339.162,283.433-339.511,282.943-339.704,282.421z"/>
	</g>
	<path d="M-287.492,300.171c-0.79,0-1.467-0.592-1.565-1.367c-0.057-0.423,0.057-0.832,0.312-1.171   c0.253-0.337,0.633-0.55,1.042-0.605c0.861-0.113,1.665,0.508,1.778,1.354c0.111,0.874-0.495,1.663-1.354,1.776   C-287.352,300.171-287.422,300.171-287.492,300.171L-287.492,300.171z M-288.762,295.42c-0.648,0-1.228-0.382-1.467-0.974   c-0.337-0.803,0.043-1.734,0.861-2.072c0.789-0.325,1.734,0.07,2.059,0.859c0.339,0.804-0.043,1.735-0.846,2.074   C-288.353,295.377-288.55,295.42-288.762,295.42L-288.762,295.42z M-291.243,291.175c-0.493,0-0.945-0.226-1.241-0.607   c-0.536-0.691-0.423-1.693,0.269-2.229c0.677-0.522,1.706-0.395,2.227,0.282c0.255,0.325,0.368,0.747,0.325,1.157   c-0.057,0.421-0.269,0.803-0.605,1.058C-290.552,291.062-290.891,291.175-291.243,291.175L-291.243,291.175z M-294.77,287.732   c-0.338,0-0.662-0.098-0.93-0.294c-0.339-0.253-0.565-0.621-0.635-1.044c-0.056-0.424,0.042-0.832,0.296-1.171   c0.494-0.677,1.537-0.845,2.214-0.338c0.705,0.508,0.86,1.509,0.339,2.201C-293.781,287.493-294.262,287.732-294.77,287.732   L-294.77,287.732z M-299.098,285.421c-0.184,0-0.367-0.029-0.536-0.085c-0.028-0.014-0.042-0.014-0.056-0.028   c-0.381-0.155-0.677-0.424-0.846-0.791c-0.184-0.394-0.198-0.818-0.057-1.212c0.282-0.804,1.227-1.242,2.031-0.96   c0.818,0.296,1.241,1.213,0.945,2.032C-297.843,284.997-298.436,285.421-299.098,285.421L-299.098,285.421z M-308.815,284.956   c-0.733,0-1.367-0.494-1.537-1.2c-0.099-0.409-0.043-0.832,0.169-1.199c0.225-0.366,0.564-0.62,0.973-0.719   c0.832-0.211,1.72,0.311,1.932,1.143c0.212,0.845-0.31,1.706-1.156,1.917C-308.561,284.94-308.688,284.956-308.815,284.956   L-308.815,284.956z M-303.921,284.461c-0.014,0-0.071,0-0.071,0c-0.438-0.014-0.818-0.197-1.1-0.508   c-0.296-0.324-0.438-0.719-0.424-1.142c0.057-0.847,0.748-1.508,1.594-1.508c0.028,0,0.042,0,0.07,0l0,0   c0.423,0.014,0.818,0.211,1.101,0.521c0.281,0.312,0.422,0.719,0.408,1.143C-302.384,283.799-303.076,284.461-303.921,284.461   L-303.921,284.461z"/>
	<path d="M-248.435,327.18v-3.683c0,0,0-1.645,0-2.474h0.013v-0.835c0-2.881-2.535-5.212-5.666-5.212h-13.684l-7.901-12.665   c-0.005-0.009-0.01-0.016-0.015-0.023l-0.002-0.003l10.039-9.835c0.556-0.545,0.564-1.438,0.019-1.994   c-0.544-0.558-1.437-0.566-1.994-0.022l-11.516,11.282c-0.925,1.097-0.134,2.457,0.052,2.763l-0.003,0.003l5.581,9.667   c0.11,0.167,0.171,0.353,0.171,0.591c0,0.671-0.343,1.005-1.014,1.005h-4.253l1.568-1.536c0.695-0.681,0.707-1.798,0.025-2.493   c-0.68-0.694-1.798-0.705-2.493-0.024l-4.14,4.054h-0.036c-0.406-1.506-1.114-3.123-2.354-4.167   c-1.685-1.417-4.124-0.479-5.031,0.504c-1.154,1.181-2.058,2.474-2.749,3.651h-1.467v-8.248h-3.525v8.248l-7.651,0.012   c-0.752,0-1.108-0.561-0.958-1.149c0.001-0.004,0.001-0.007,0.001-0.013l2.635-7.056c0,0,0.409-0.915,0.772-1.306   c0.412-0.44,0.98-0.441,0.98-0.441l9.626-0.007v-4.4l-10.509,0.01l-0.001-0.002l-0.024,0.002h-0.212v0.012l-0.223,0.013   c-1.29,0.208-2.833,1.208-3.285,2.511l-4.94,11.021l-0.025,0.039h-9.359c-3.129,0-5.667,2.331-5.667,5.212v0.835h0.014   c0,0.829,0,2.474,0,2.474v3.683h-2.347v4.596c0,1.622,0.816,2.44,2.445,2.44h2.246c0.195-2.733,1.453-5.065,3.762-6.988   c2.314-1.917,4.901-2.877,7.768-2.877c2.866,0,5.471,0.96,7.816,2.877c2.345,1.923,3.613,4.255,3.81,6.988h28.2   c0.198-2.733,1.465-5.065,3.811-6.988c2.345-1.917,4.951-2.877,7.815-2.877c2.867,0,5.455,0.96,7.769,2.877   c2.31,1.923,3.567,4.255,3.763,6.988h2.245c1.629,0,2.445-0.818,2.445-2.44v-4.596H-248.435z"/>
</g>
</svg>