<svg xmlns="http://www.w3.org/2000/svg" xmlns:xlink="http://www.w3.org/1999/xlink" version="1.1" id="Layer_1" x="0px" y="0px" width="100px" height="100px" viewBox="0 0 100 100" enable-background="new 0 0 100 100" xml:space="preserve">
<path d="M91.474,54.886c-0.433-1.257-0.687-3.043-0.687-4.881c0-1.849,0.254-3.634,0.687-4.892l2.239-6.487  c1.354-3.908,0.645-8.515-1.659-10.733c-1.034-0.994-2.419-1.512-4.003-1.512c-2.198,0-4.49,1.004-6.286,2.747l-7.016,6.751  c-7.386-5.62-18.754-9.729-27.301-9.729c-29.139,0-40.846,21.943-41.332,22.883L5.61,50.005l0.506,0.972  c0.486,0.93,12.193,22.874,41.332,22.874c8.547,0,19.915-4.11,27.301-9.73l7.016,6.762c1.796,1.743,4.088,2.736,6.286,2.736  c1.584,0,2.969-0.518,4.003-1.511c2.304-2.219,3.013-6.825,1.659-10.734L91.474,54.886z M33.133,61.142  c-6.16,0-11.146-4.987-11.146-11.137c0-6.159,4.986-11.146,11.146-11.146s11.146,4.987,11.146,11.146  C44.279,56.154,39.293,61.142,33.133,61.142z"/>
<circle cx="33.132" cy="50.001" r="6.128"/>
</svg>