<svg xmlns="http://www.w3.org/2000/svg" xmlns:xlink="http://www.w3.org/1999/xlink" version="1.1" id="Layer_1" width="40.963" height="91.09" viewBox="0 0 40.963 91.09" overflow="visible" enable-background="new 0 0 40.963 91.09" xml:space="preserve">
<g>
	<path d="M13.096,7.823c1.422,2.88-2.16,11.633-2.16,16.362c0,3.496,1.825,4.067,1.778,8.092c-0.052,4.054-3.208,6.365-5.436,6.365   c-2.251,0-5.271-1.199-5.312-5.322c-0.037-3.711,0.548-5.203,0.216-8.94c-0.41-4.621-3.488-8.804-1.545-12.986   c1.168-2.515,5.12-3.328,6.641-4.166C8.61,6.494,11.908,5.42,13.096,7.823z"/>
	<ellipse cx="10.919" cy="2.804" rx="1.583" ry="2.805"/>
	<ellipse cx="7.526" cy="4.117" rx="0.995" ry="1.402"/>
	<ellipse cx="5.4" cy="5.626" rx="0.859" ry="1.176"/>
	<path d="M4.002,6.893c0,0.623-0.385,1.13-0.859,1.13c-0.475,0-0.859-0.507-0.859-1.13c0-0.627,0.385-1.132,0.859-1.132   C3.617,5.761,4.002,6.266,4.002,6.893z"/>
	<ellipse cx="1.072" cy="8.291" rx="0.769" ry="1.042"/>
</g>
<g>
	<path d="M26.908,61.076c-1.096,3.018,3.427,11.324,3.946,16.025c0.385,3.475-1.366,4.243-0.878,8.238   c0.498,4.024,3.891,5.974,6.103,5.729c2.236-0.247,5.104-1.772,4.693-5.877c-0.371-3.69-0.636-6.066-0.716-9.815   c-0.101-4.636,2.326-8.638-0.374-12.12c-1.699-2.191-5.454-2.747-7.057-3.413C31.223,59.26,27.825,58.556,26.908,61.076z"/>
	<path d="M26.946,56.023c0.17,1.538,1.011,2.71,1.884,2.611c0.869-0.095,1.437-1.422,1.265-2.961   c-0.173-1.542-1.014-2.71-1.882-2.613C27.342,53.157,26.774,54.482,26.946,56.023z"/>
	<ellipse transform="matrix(-0.9939 0.1104 -0.1104 -0.9939 70.1457 109.6765)" cx="32.037" cy="56.78" rx="0.995" ry="1.403"/>
	<ellipse transform="matrix(-0.994 0.1096 -0.1096 -0.994 74.7867 111.9836)" cx="34.317" cy="58.046" rx="0.86" ry="1.177"/>
	<path d="M35.843,59.15c0.068,0.623,0.509,1.085,0.978,1.029c0.473-0.05,0.802-0.6,0.732-1.216   c-0.065-0.625-0.509-1.085-0.979-1.031C36.105,57.984,35.775,58.528,35.843,59.15z"/>
	<path d="M38.147,60.306c0.063,0.567,0.458,0.994,0.878,0.947c0.421-0.047,0.713-0.55,0.651-1.116   c-0.064-0.573-0.457-0.999-0.878-0.949C38.372,59.231,38.086,59.734,38.147,60.306z"/>
</g>
</svg>