<?xml version="1.0" encoding="UTF-8"?>
<!-- Generator: Adobe Illustrator 16.0.0, SVG Export Plug-In . SVG Version: 6.00 Build 0)  -->
<!DOCTYPE svg PUBLIC "-//W3C//DTD SVG 1.1//EN" "http://www.w3.org/Graphics/SVG/1.1/DTD/svg11.dtd">
<svg version="1.1" id="Layer_1" xmlns="http://www.w3.org/2000/svg" xmlns:xlink="http://www.w3.org/1999/xlink" x="0px" y="0px" width="100px" height="74.117px" viewBox="0 0 100 74.117" enable-background="new 0 0 100 74.117" xml:space="preserve">
<g>
	<path fill="#010101" d="M18.166,22.234H0v11.319h18.44C16.992,30.06,16.784,25.73,18.166,22.234z"/>
	<path fill="#010101" d="M55.901,22.234H44.098c1.383,3.496,1.177,7.825-0.271,11.319h12.349   C54.728,30.06,54.521,25.73,55.901,22.234z"/>
	<path fill="#010101" d="M81.834,22.234c1.383,3.496,1.178,7.825-0.271,11.319H100V22.234H81.834z"/>
	<path fill="#010101" d="M42.042,19.957c-1.656-2.094-7.436-2.05-8.139-2.037c2.348-1.533,3.964-4.76,3.964-8.487   C37.867,4.222,34.71,0,30.812,0c-3.898,0-7.059,4.222-7.059,9.432c0,3.728,1.616,6.955,3.964,8.487   c-1.78,0.028-6.107,0.281-7.496,2.037c-3.171,4.009-2.89,11.03-0.134,15.336c0.535,0.835,2.713,1.222,2.713,1.222l2.444,26.066   c0,0-1.452,1.293-1.764,2.172c-1.044,2.941,0,9.364,0,9.364h15.308c0,0,1.046-6.424,0-9.364c-0.313-0.88-1.769-2.172-1.769-2.172   l2.444-26.066c0,0,2.182-0.386,2.717-1.222C44.937,30.987,45.213,23.966,42.042,19.957z"/>
	<path fill="#010101" d="M79.777,19.957c-1.656-2.094-7.436-2.05-8.139-2.037c2.349-1.533,3.964-4.76,3.964-8.487   c0-5.21-3.155-9.432-7.055-9.432s-7.061,4.222-7.061,9.432c0,3.728,1.616,6.955,3.965,8.487c-1.78,0.028-6.107,0.281-7.496,2.037   c-3.171,4.009-2.89,11.03-0.134,15.336c0.534,0.835,2.713,1.222,2.713,1.222l2.444,26.066c0,0-1.452,1.293-1.765,2.172   c-1.045,2.941,0,9.364,0,9.364h15.308c0,0,1.047-6.424,0-9.364c-0.312-0.88-1.768-2.172-1.768-2.172l2.443-26.066   c0,0,2.183-0.386,2.719-1.222C82.673,30.987,82.95,23.966,79.777,19.957z"/>
	<path fill="#010101" d="M87.102,54.977c-3.896,0.001-7.053,3.159-7.052,7.053c0,0.001,0,0.002,0,0.002   c0,3.896,3.159,7.053,7.054,7.052c3.895,0,7.051-3.158,7.051-7.054c0,0,0-0.001,0-0.002C94.153,58.134,90.996,54.977,87.102,54.977   z"/>
</g>
</svg>