<svg xmlns="http://www.w3.org/2000/svg" xmlns:xlink="http://www.w3.org/1999/xlink" version="1.1" id="Calque_1" x="0px" y="0px" width="100px" height="100px" viewBox="0 0 100 100" enable-background="new 0 0 100 100" xml:space="preserve">
<path d="M44.518,83.152c0.737,3.678-1.645,7.257-5.323,7.995c-3.607,0.724-7.015-1.595-9.457-1.104  c-1.844,0.37-3.802,2.474-6.036,3.759c-0.676,0.424-1.435,0.74-2.263,0.906c-3.678,0.738-7.257-1.646-7.994-5.323  c-0.493-2.455,0.411-4.863,2.159-6.414c0.046-0.077,0.131-0.153,0.267-0.232c0.026-0.016,0.052-0.038,0.078-0.053  c0.215-0.167,0.441-0.321,0.678-0.463c1.682-1.319,3.122-3.679,3.67-6.71l0.013,0.002c0.407-2.757,2.488-5.091,5.377-5.67  c2.998-0.601,5.928,0.871,7.31,3.429l0.001-0.001c1.86,2.871,4.005,4.275,6.217,4.56c0.004,0,0.008,0.002,0.012,0.003  c0.087,0.011,0.157,0.031,0.217,0.056C41.935,78.49,43.981,80.476,44.518,83.152z M21.151,60.519  c-1.388-3.93-4.551-6.396-7.066-5.508c-2.515,0.889-3.429,4.794-2.042,8.723c1.387,3.93,4.551,6.396,7.066,5.509  C21.624,68.354,22.538,64.448,21.151,60.519z M31.229,66.812c2.663-0.151,4.63-3.647,4.395-7.809  c-0.236-4.159-2.585-7.41-5.248-7.26c-2.663,0.151-4.63,3.646-4.395,7.808C26.216,63.71,28.565,66.962,31.229,66.812z   M43.131,75.506c2.663-0.152,4.63-3.646,4.394-7.808c-0.235-4.16-2.585-7.411-5.248-7.261c-2.663,0.151-4.63,3.646-4.395,7.808  C38.119,72.405,40.467,75.656,43.131,75.506z M15.297,72.775c-1.388-3.93-4.551-6.396-7.066-5.509  c-2.514,0.889-3.429,4.794-2.042,8.723c1.387,3.93,4.551,6.396,7.065,5.51C15.771,80.61,16.684,76.705,15.297,72.775z"/>
<path d="M57.489,34.121c0.066-0.027,0.144-0.05,0.24-0.062c0.005-0.001,0.009-0.003,0.013-0.004  c2.443-0.313,4.812-1.864,6.867-5.035v0.001c1.525-2.824,4.763-4.45,8.073-3.786c3.19,0.64,5.489,3.217,5.938,6.262l0.014-0.002  c0.606,3.348,2.195,5.953,4.054,7.41c0.261,0.156,0.511,0.326,0.749,0.511c0.028,0.017,0.057,0.041,0.086,0.059  c0.15,0.087,0.244,0.172,0.295,0.257c1.93,1.713,2.928,4.372,2.384,7.084c-0.814,4.062-4.767,6.694-8.829,5.879  c-0.914-0.184-1.752-0.533-2.499-1.001c-2.468-1.42-4.63-3.743-6.666-4.151c-2.696-0.541-6.46,2.019-10.444,1.22  c-4.062-0.815-6.692-4.768-5.878-8.83C52.479,36.976,54.738,34.783,57.489,34.121z M79.947,24.569  c2.777,0.979,6.271-1.744,7.804-6.084c1.532-4.339,0.522-8.652-2.255-9.633c-2.778-0.98-6.271,1.743-7.805,6.083  C76.16,19.275,77.17,23.588,79.947,24.569z M72.359,13.866c0.26-4.596-1.914-8.456-4.854-8.623  c-2.941-0.166-5.536,3.424-5.797,8.018c-0.26,4.596,1.913,8.456,4.854,8.623C69.504,22.051,72.098,18.46,72.359,13.866z   M59.214,23.469c0.26-4.596-1.913-8.456-4.854-8.623c-2.941-0.166-5.536,3.425-5.796,8.019c-0.261,4.596,1.912,8.455,4.853,8.623  C56.359,31.653,58.953,28.062,59.214,23.469z M86.412,38.105c2.777,0.979,6.271-1.744,7.804-6.084s0.522-8.652-2.255-9.634  c-2.777-0.979-6.271,1.744-7.805,6.084C82.626,32.812,83.635,37.124,86.412,38.105z"/>
</svg>