<svg xmlns="http://www.w3.org/2000/svg" xmlns:xlink="http://www.w3.org/1999/xlink" version="1.1" id="Layer_1" x="0px" y="0px" width="24px" height="24px" viewBox="-395.5 304.5 24 24" enable-background="new -395.5 304.5 24 24" xml:space="preserve">
<g id="Layer_2">
</g>
<g>
	<circle cx="-375.5" cy="314.5" r="2"/>
	<path d="M-380.5,324.5c0.304,0,0.591-0.138,0.781-0.375l4-5c0.24-0.301,0.287-0.712,0.121-1.059   c-0.167-0.346-0.517-0.566-0.901-0.566h-2c-0.304,0-0.591,0.138-0.781,0.375l-1.3,1.625h-2.919v-2h1v-1h-1l-1,1v1h-1v3h3.8l-0.8,1   h-4c-0.265,0-0.52,0.105-0.707,0.293l-4,4c-0.195,0.195-0.293,0.451-0.293,0.707s0.098,0.512,0.293,0.707s0.451,0.293,0.707,0.293   s0.512-0.098,0.707-0.293l3.707-3.707H-380.5z"/>
	<path d="M-388.5,322.5l1-1v-11h6.423c-1.069-2.221-3.523-3.8-6.423-3.967V305.5h-1v1.033c-2.9,0.167-5.354,1.746-6.423,3.967h6.423   V322.5z"/>
	<path d="M-372.397,317.422c-0.216-0.171-0.53-0.137-0.703,0.078l-6.4,8h-6l-3,3h1.414l2-2h5.586c0.304,0,0.591-0.138,0.781-0.375   l0.492-0.614l0.806,2.989h0.922l-1.038-3.852l5.219-6.523C-372.146,317.909-372.182,317.595-372.397,317.422z"/>
</g>
</svg>