<svg xmlns="http://www.w3.org/2000/svg" xmlns:xlink="http://www.w3.org/1999/xlink" version="1.1" id="Your_Icon" x="0px" y="0px" width="100px" height="100px" viewBox="0 0 100 100" enable-background="new 0 0 100 100" xml:space="preserve">
<path d="M46,75.5c0,0.276-0.224,0.5-0.5,0.5h-15c-0.276,0-0.5-0.224-0.5-0.5l0,0c0-0.276,0.224-0.5,0.5-0.5h15  C45.776,75,46,75.224,46,75.5L46,75.5z"/>
<path d="M72,75.5c0,0.276-0.224,0.5-0.5,0.5h-15c-0.276,0-0.5-0.224-0.5-0.5l0,0c0-0.276,0.224-0.5,0.5-0.5h15  C71.776,75,72,75.224,72,75.5L72,75.5z"/>
<path id="_x3C_Path_x3E__2_" d="M31.792,73.657c-0.062,0-0.123-0.022-0.169-0.066c-0.274-0.252-0.35-0.679-0.219-1.233  c0.126-0.532,0.441-1.142,0.815-1.531c-0.092,0.032-0.192,0.077-0.298,0.134c-0.678,0.36-1.492,1.037-1.678,1.671  c-0.069,0.235-0.049,0.447,0.063,0.647c0.067,0.121,0.024,0.272-0.096,0.34c-0.119,0.069-0.272,0.025-0.34-0.096  c-0.178-0.319-0.214-0.666-0.106-1.033c0.244-0.829,1.188-1.58,1.923-1.971c0.552-0.293,0.989-0.335,1.299-0.125  c0.01,0.007,0.019,0.014,0.028,0.021c0.356-0.037,0.69,0.198,0.862,0.578c0.015,0.031,0.028,0.064,0.04,0.098  c0.302-0.343,0.654-0.658,0.975-0.777c0.2-0.074,0.379-0.073,0.535,0c0.323,0.151,0.342,0.599,0.359,1.03  c0.005,0.14,0.014,0.35,0.039,0.404c0.218,0.401,0.574,0.306,1.28,0.016l0.227-0.092c0.166-0.729,0.571-1.41,0.578-1.421  c0.211-0.349,1.856-2.067,2.918-1.935c0.248,0.032,0.575,0.176,0.725,0.682c0.418,1.412-2.394,2.506-3.779,3.039  c-0.032,0.266-0.007,0.496,0.107,0.643c0.525,0.675,2.007,0.346,2.875-0.037c0.021-0.01,0.042-0.02,0.064-0.028  c-0.695-0.054-0.858-0.353-0.865-0.609c-0.024-0.894,2.181-2.216,2.97-2.25c0.148-0.007,0.606-0.026,0.796,0.304  c0.194,0.334-0.033,0.778-0.253,1.128c-0.137,0.219-0.308,0.429-0.511,0.63c0.538-0.156,1.084-0.359,1.655-0.58  c0.524-0.204,1.045-0.416,1.564-0.634c0.028-0.015,0.094-0.04,0.165-0.065c0.019-0.007,0.042-0.016,0.066-0.024  c0.038-0.124,0.153-0.2,0.279-0.173c0.108,0.023,0.262,0.157,0.27,0.268c0.016,0.229-0.206,0.312-0.44,0.398  c-0.052,0.019-0.101,0.036-0.131,0.052c-0.536,0.226-1.062,0.439-1.59,0.646c-0.96,0.37-1.853,0.694-2.769,0.839  c-0.316,0.197-0.672,0.384-1.065,0.558c-0.935,0.415-2.717,0.856-3.472-0.113c-0.162-0.207-0.224-0.468-0.224-0.747  c-0.61,0.252-1.427,0.571-1.877-0.253c-0.079-0.146-0.088-0.355-0.099-0.622c-0.007-0.174-0.022-0.535-0.086-0.607  c-0.028-0.01-0.096,0.011-0.134,0.025c-0.332,0.123-0.789,0.622-1.103,1.046c-0.057,0.248-0.191,0.476-0.419,0.622  c-0.093,0.062-0.215,0.052-0.298-0.021c-0.076-0.065-0.105-0.169-0.076-0.263c-0.242,0.631-0.701,1.241-1.283,1.474  C31.854,73.651,31.823,73.657,31.792,73.657z M32.817,70.976c-0.32,0.187-0.772,0.845-0.927,1.497  c-0.061,0.256-0.065,0.468-0.015,0.612c0.513-0.32,0.906-1.081,0.97-1.675C32.865,71.235,32.854,71.086,32.817,70.976z   M33.346,71.073c0.013,0.12,0.012,0.251-0.003,0.391c-0.023,0.215-0.08,0.444-0.165,0.673c0.05-0.111,0.161-0.297,0.312-0.509  c0.015-0.146-0.011-0.301-0.07-0.429C33.403,71.16,33.378,71.115,33.346,71.073z M43.009,70.252c-0.021,0-0.043,0.001-0.066,0.002  c-0.71,0.03-2.504,1.28-2.492,1.736c0.001,0.026,0.116,0.121,0.633,0.131c0.255-0.003,0.508-0.023,0.759-0.06  c0.539-0.349,0.94-0.73,1.199-1.142c0.308-0.49,0.244-0.61,0.244-0.611C43.278,70.295,43.21,70.252,43.009,70.252z M40.693,68.808  c-0.74,0-2.144,1.347-2.357,1.7c-0.154,0.257-0.313,0.596-0.426,0.937c2.281-0.911,3.345-1.686,3.161-2.305  c-0.079-0.266-0.207-0.314-0.309-0.328C40.74,68.809,40.716,68.808,40.693,68.808z"/>
<path id="_x3C_Path_x3E__3_" d="M56.664,73.437c-0.041,0-0.082-0.01-0.119-0.03c-0.575-0.313-0.567-1.494-0.561-2.535  c0.002-0.347,0.004-0.673-0.021-0.853c-0.01-0.068-0.036-0.174-0.065-0.295c-0.139-0.578-0.224-1.006-0.047-1.236  c0.068-0.09,0.169-0.141,0.284-0.145c0.146,0.028,0.253,0.105,0.257,0.243c0.003,0.102-0.056,0.191-0.143,0.232  c-0.014,0.17,0.089,0.596,0.135,0.788c0.033,0.141,0.062,0.262,0.073,0.34c0.007,0.043,0.012,0.09,0.016,0.142  c0.083-0.171,0.196-0.333,0.347-0.484c0.424-0.426,0.914-0.625,1.443-0.587c1.154,0.078,2.26,1.235,2.983,2.192  c0.083,0.109,0.158,0.217,0.229,0.318c0.127,0.181,0.317,0.455,0.399,0.455l0,0c0.005,0,0.114-0.005,0.366-0.358  c0.097-0.136,0.199-0.416,0.283-0.756c-0.251-0.627-0.335-1.358-0.406-1.974c-0.024-0.213-0.048-0.418-0.076-0.605  c-0.011-0.067,0.008-0.138,0.051-0.191c0.043-0.055,0.105-0.089,0.175-0.095c0.318-0.024,0.573,0.114,0.734,0.396  c0.309,0.539,0.23,1.592,0.041,2.423c0.194,0.415,0.484,0.738,0.939,0.884c0.392,0.126,1.12-0.016,1.645-0.288  c-0.062-0.376-0.032-0.854,0.087-1.443c0.017-0.081,0.072-0.149,0.149-0.182c0.079-0.032,0.164-0.022,0.234,0.023  c0.781,0.52,0.681,1.05,0.551,1.318c-0.088,0.184-0.242,0.352-0.437,0.499c0.04,0.079,0.083,0.132,0.122,0.166  c0.231,0.201,0.472,0.141,0.635,0.054c0.252-0.137,0.448-0.406,0.517-0.677c-0.011-0.105-0.006-0.229,0.021-0.374  c0.021-0.121,0.113-0.227,0.251-0.205c0.122,0.002,0.226,0.093,0.242,0.215c0.019,0.123,0.015,0.251-0.006,0.378  c0.014,0.049,0.04,0.087,0.084,0.104c0.234,0.09,0.771-0.15,1.113-0.513c-0.061-0.083-0.108-0.171-0.143-0.265  c-0.121-0.332-0.047-0.683,0.222-1.042c0.042-0.057,0.106-0.093,0.177-0.1c0.068-0.011,0.141,0.018,0.193,0.065  c0.38,0.351,0.452,0.813,0.205,1.284c0.35,0.247,0.954,0.474,1.809,0.676c0.134,0.031,0.218,0.166,0.186,0.301  c-0.031,0.134-0.159,0.223-0.301,0.186c-0.694-0.164-1.476-0.39-1.987-0.759c-0.448,0.47-1.166,0.818-1.654,0.632  c-0.027-0.011-0.062-0.026-0.098-0.048c-0.142,0.239-0.347,0.447-0.593,0.58c-0.413,0.225-0.863,0.18-1.202-0.118  c-0.088-0.077-0.162-0.171-0.222-0.279c-0.638,0.313-1.45,0.445-1.952,0.287c-0.428-0.137-0.741-0.388-0.975-0.706  c-0.068,0.19-0.14,0.343-0.206,0.437c-0.189,0.266-0.447,0.569-0.774,0.569c0,0-0.001,0-0.002,0  c-0.342-0.002-0.558-0.312-0.808-0.669c-0.066-0.097-0.138-0.199-0.217-0.304c-0.542-0.715-1.602-1.926-2.618-1.994  c-0.394-0.024-0.735,0.118-1.056,0.441c-0.538,0.539-0.44,1.312-0.338,2.13c0.047,0.37,0.095,0.753,0.078,1.111  c-0.004,0.086-0.053,0.164-0.128,0.206C56.749,73.426,56.706,73.437,56.664,73.437z M66.131,70.504  c-0.029,0.223-0.038,0.408-0.034,0.564c0.042-0.049,0.075-0.099,0.1-0.149C66.225,70.859,66.295,70.715,66.131,70.504z M62.6,68.713  c0.005,0.041,0.01,0.083,0.015,0.125c0.028,0.244,0.057,0.496,0.095,0.743C62.72,69.234,62.69,68.92,62.6,68.713z"/>
<path id="_x3C_Path_x3E__1_" d="M79,13v-2h-2V9H25v76h2v2h2v2h52V13H79z M26,84V10h50v74H26z M28,86v-1h49V12h1v74H28z M80,88H30v-1  h49V14h1V88z"/>
<path d="M72,38c0,0.55-0.45,1-1,1H31c-0.55,0-1-0.45-1-1l0,0c0-0.55,0.45-1,1-1h40C71.55,37,72,37.45,72,38L72,38z"/>
<path d="M72,43c0,0.55-0.45,1-1,1H31c-0.55,0-1-0.45-1-1l0,0c0-0.55,0.45-1,1-1h40C71.55,42,72,42.45,72,43L72,43z"/>
<path d="M72,48c0,0.55-0.45,1-1,1H31c-0.55,0-1-0.45-1-1l0,0c0-0.55,0.45-1,1-1h40C71.55,47,72,47.45,72,48L72,48z"/>
<path d="M72,53c0,0.55-0.45,1-1,1H31c-0.55,0-1-0.45-1-1l0,0c0-0.55,0.45-1,1-1h40C71.55,52,72,52.45,72,53L72,53z"/>
<path d="M72,58c0,0.55-0.45,1-1,1H31c-0.55,0-1-0.45-1-1l0,0c0-0.55,0.45-1,1-1h40C71.55,57,72,57.45,72,58L72,58z"/>
<path d="M51,63c0,0.55-0.45,1-1,1H31c-0.55,0-1-0.45-1-1l0,0c0-0.55,0.45-1,1-1h19C50.55,62,51,62.45,51,63L51,63z"/>
<path d="M32,33v-1h-1c-0.55,0-1,0.45-1,1s0.45,1,1,1h1V33z"/>
<polygon points="33.707,33.707 33.414,34 38.586,34 38.293,33.707 36.586,32 35.414,32 "/>
<path d="M71,32H40v1v1h31c0.55,0,1-0.45,1-1S71.55,32,71,32z"/>
<path d="M71,27H40v2h31c0.55,0,1-0.45,1-1S71.55,27,71,27z"/>
<path d="M71,16H42.315C42.75,16.911,43,17.925,43,19h28c0.55,0,1-0.45,1-1v-1C72,16.45,71.55,16,71,16z"/>
<path id="_x3C_Path_x3E_" d="M36,13c3.313,0,6,2.687,6,6c0,2.219-1.208,4.153-3,5.19V33l-3-3l-3,3v-8.81  c-1.792-1.038-3-2.971-3-5.19C30,15.687,32.687,13,36,13"/>
</svg>