<svg xmlns="http://www.w3.org/2000/svg" xmlns:xlink="http://www.w3.org/1999/xlink" version="1.1" id="Layer_1" x="0px" y="0px" width="100px" height="100px" viewBox="0 0 100 100" style="enable-background:new 0 0 100 100;" xml:space="preserve">
<g>
	<g>
		<path d="M18.7,40.5l-9.4-1.9c1.3-4.1,3.5-8.4,6.2-12c2.9-3.8,6.5-7.2,10.6-9.8c4.1-2.6,8.7-4.5,13.5-5.6c4.8-1.1,9.8-1.2,14.8-0.6    l0.9,0.1l1.1,0.2l1.5,0.3l0.8,0.2l0.2,0l0.2,0.1l0.5,0.1l1.9,0.6c1.4,0.4,2.4,0.9,3.6,1.4c1.2,0.4,2.3,1.1,3.4,1.6    c1.1,0.5,2.2,1.3,3.3,1.9l0.8,0.5c0.3,0.2,0.5,0.4,0.8,0.6l1.5,1.2c2,1.6,3.8,3.3,5.5,5.2c0.4,0.5,0.8,1,1.2,1.5l1.2,1.5    c0.4,0.5,0.7,1,1.1,1.6l1,1.6l0.3,0.4l0.2,0.4l0.5,0.8l0.9,1.7c0.6,1.2,1,2.4,1.6,3.5c0.5,1.2,0.8,2.4,1.2,3.7    c0.3,1.3,0.6,2.5,0.9,3.8c0.2,1.3,0.4,2.6,0.6,3.9c0.1,1.2,0.2,2.4,0.2,3.6l6.4,1.3L80,65.4L68,48l5.8,1.2c0-0.4-0.1-0.8-0.1-1.2    l-0.4-2.4c-0.2-0.8-0.4-1.6-0.6-2.3c-0.3-0.8-0.5-1.5-0.8-2.3l-0.5-1.1l-0.2-0.6L71.1,39L71,38.8l-0.6-1.1    c-0.2-0.4-0.4-0.7-0.6-1.1l-0.7-1c-0.2-0.3-0.4-0.7-0.7-1c-1-1.3-2.1-2.6-3.3-3.7l-0.9-0.8c-0.2-0.1-0.3-0.3-0.5-0.4l-0.5-0.4    c-0.7-0.5-1.3-1-2-1.5c-0.7-0.4-1.4-0.9-2.1-1.3c-0.7-0.4-1.5-0.8-2.2-1c-0.3-0.1-0.7-0.3-1-0.4L55.7,25c0,0-0.1,0-0.1-0.1    l-0.2-0.1l-0.8-0.2l-1.5-0.4l-0.4-0.1L52.5,24l0,0l0,0L52,23.9c-3.3-0.8-6.8-0.9-10.2-0.5c-3.4,0.4-6.8,1.5-9.9,3.2    c-3.1,1.6-6,3.9-8.3,6.5C21.6,35.3,20,37.8,18.7,40.5z M71,80.6c-3.7,2.5-7.8,4.4-12,5.4c-4.3,1-8.7,1.3-12.9,0.8l-0.8-0.1    l-0.8-0.1l-0.8-0.1c-0.3,0-0.5-0.1-0.8-0.2c-0.5-0.1-1-0.2-1.5-0.4c-0.5-0.1-1-0.3-1.5-0.4c-2-0.6-4-1.5-5.9-2.5    c-3.8-2-7.1-4.6-9.9-7.8c-2.8-3.1-4.9-6.8-6.4-10.6c-0.9-2.3-1.4-4.6-1.8-7l5.6,0.6l-8.8-10.6L1.8,56.1l5.1,0.5    c0.6,3.8,1.8,7.6,3.4,11.1c2.2,4.6,5.2,8.7,8.8,12.2c3.6,3.5,7.8,6.3,12.3,8.2c2.3,1,4.6,1.7,7,2.3c0.6,0.1,1.2,0.3,1.8,0.4    c0.6,0.1,1.2,0.2,1.8,0.3c0.3,0,0.6,0.1,0.9,0.1l0.9,0.1l0.9,0.1l0.9,0c4.9,0.2,9.7-0.5,14.3-2c4.5-1.5,8.8-3.9,12.4-6.9    c3-2.5,5.7-5.4,7.8-8.7l-1.6-0.2C76.4,76.2,73.8,78.6,71,80.6z"/>
	</g>
</g>
</svg>