<?xml version="1.0" encoding="UTF-8"?>
<!-- Generator: Adobe Illustrator 15.1.0, SVG Export Plug-In . SVG Version: 6.00 Build 0)  -->
<!DOCTYPE svg PUBLIC "-//W3C//DTD SVG 1.1//EN" "http://www.w3.org/Graphics/SVG/1.1/DTD/svg11.dtd">
<svg version="1.1" id="Layer_1" xmlns="http://www.w3.org/2000/svg" xmlns:xlink="http://www.w3.org/1999/xlink" x="0px" y="0px" width="100px" height="61.099px" viewBox="0 19.842 100 61.099" enable-background="new 0 19.842 100 61.099" xml:space="preserve">
<path d="M100,45.879c0,0-16.445-26.037-50-26.037c-33.555,0-50,26.037-50,26.037c6.003-3.001,11.658-5.324,16.858-7.127  c-0.63,2.589-0.976,5.29-0.976,8.069c0,18.814,15.306,34.12,34.119,34.12c18.813,0,34.12-15.306,34.12-34.12  c0-2.779-0.34-5.479-0.971-8.067C88.349,40.558,94,42.879,100,45.879z M56.272,37.774c3.063,0,5.547,2.483,5.547,5.544  c0,3.062-2.483,5.545-5.547,5.545c-3.06,0-5.544-2.484-5.544-5.545S53.213,37.774,56.272,37.774z M50,72.698  c-14.268,0-25.876-11.609-25.876-25.877c0-3.943,0.902-7.676,2.487-11.024c4.806-1.242,9.019-2.016,12.488-2.488  c-3.942,3.185-6.467,8.051-6.467,13.511c0,9.592,7.776,17.369,17.368,17.369c9.593,0,17.367-7.777,17.367-17.369  c0-5.461-2.525-10.327-6.466-13.511c3.474,0.473,7.691,1.248,12.505,2.493c1.583,3.345,2.471,7.081,2.471,11.02  C75.877,61.089,64.267,72.698,50,72.698z"/>
</svg>