<svg xmlns="http://www.w3.org/2000/svg" xmlns:xlink="http://www.w3.org/1999/xlink" version="1.1" id="Layer_1" x="0px" y="0px" width="100px" height="100px" viewBox="0 0 100 100" enable-background="new 0 0 100 100" xml:space="preserve">
<g>
	<path d="M53.37,42.392c-0.102,0-0.204-0.003-0.308-0.009c-3.557-0.206-6.245-3.947-5.991-8.34c0.252-4.39,3.325-7.79,6.907-7.596   c3.557,0.204,6.245,3.944,5.993,8.338C59.725,39.05,56.825,42.392,53.37,42.392z M53.671,29.175c-1.973,0-3.708,2.255-3.868,5.026   c-0.164,2.838,1.402,5.334,3.418,5.45l0.149,0.003c1.974,0,3.71-2.255,3.869-5.026c0.163-2.837-1.403-5.333-3.417-5.449   L53.671,29.175z"/>
</g>
<g>
	<path d="M13.25,44.217c-3.683,0-6.796-3.207-7.241-7.461c-0.223-2.134,0.267-4.225,1.38-5.888c1.167-1.741,2.87-2.811,4.794-3.013   c3.946-0.416,7.415,2.928,7.885,7.428c0.224,2.134-0.266,4.226-1.381,5.888c-1.166,1.741-2.869,2.81-4.793,3.012   C13.678,44.206,13.463,44.217,13.25,44.217z M12.829,30.558c-0.119,0-0.239,0.007-0.359,0.019   c-1.104,0.116-2.101,0.761-2.805,1.813c-0.76,1.132-1.09,2.582-0.933,4.081c0.31,2.958,2.491,5.238,4.88,4.991   c1.103-0.116,2.1-0.76,2.805-1.814c0.759-1.132,1.09-2.581,0.933-4.08C17.053,32.759,15.069,30.558,12.829,30.558z"/>
</g>
<g>
	<path d="M87.261,49.922c-0.598,0-1.189-0.086-1.762-0.255c-1.855-0.55-3.334-1.914-4.162-3.837   c-0.793-1.838-0.892-3.985-0.281-6.042c1.068-3.601,4.09-6.117,7.35-6.117c0.597,0,1.189,0.086,1.761,0.257   c3.735,1.108,5.729,5.54,4.442,9.879C93.541,47.408,90.52,49.922,87.261,49.922z M88.405,36.408c-2.025,0-4.013,1.749-4.727,4.157   c-0.43,1.445-0.368,2.931,0.17,4.182c0.503,1.166,1.364,1.981,2.428,2.296c0.318,0.095,0.648,0.142,0.982,0.142   c2.025,0,4.012-1.748,4.727-4.157c0.858-2.892-0.308-5.797-2.598-6.477C89.07,36.456,88.738,36.408,88.405,36.408z"/>
</g>
<path d="M93.068,56.892c-1.975-3.767-10.33-7.632-14.507-7.418c-3.019,0.158-10.136,3.992-11.657,6.703  c-0.251,0.446-0.491,1.063-0.703,1.789c-0.438-0.063-0.897-0.11-1.344-0.168c-0.116-2.423-0.049-5.693,0.472-6.667  c0.16-0.299,0.525-0.898,0.998-1.678c2.268-3.733,4.524-7.561,5.061-9.727c0.896-3.623-1.116-12.1-4.186-15.205  c-1.407-1.424-2.74-1.48-3.608-1.272c-3.265,0.767-2.385,5.276-1.61,9.254c0.372,1.904,0.793,4.065,0.585,5.038  c-0.292,1.372-2.606,4.839-3.871,5.798c-1.645,1.25-6.398,1.547-8.877,0.865c-1.897-0.523-4.831-4.861-5.24-7.192  c-0.2-1.138,0.451-3.517,1.025-5.616c1.115-4.082,2.381-8.71-0.949-9.85c-0.786-0.27-2.012-0.337-3.394,0.871  c-3.405,2.976-6.223,12.991-5.42,17.034c0.399,2.021,1.833,4.405,3.218,6.71c0.991,1.648,2.014,3.352,2.429,4.591  c0.329,0.982,0.54,4.512,0.606,6.724c-5.645,0.548-10.785,1.551-15.15,2.91c0.005-0.168-0.016-0.338-0.076-0.506l-1.076-3.027  c1.611,0.724,3.533,1.12,5.27,0.242c2.747-1.392,6.993-7.828,6.189-11.225c-0.354-1.496-1.545-2.358-3.268-2.365  c-0.004,0-0.009,0-0.013,0c-2.152,0-3.354,2.29-4.416,4.31c-0.329,0.625-0.802,1.523-1.116,1.9  c-0.741-0.308-2.067-1.464-2.979-2.259c-1.317-1.149-2.562-2.236-3.739-2.711c-3.365-1.356-9.399,0-12.155,2.029  c-3.345,2.467-5.251,9.05-4.342,14.992c0.474,3.099,4.471,5.453,8.358,6.517c-0.994,1.385-1.534,2.849-1.534,4.372  c0,8.781,17.584,15.656,40.03,15.656c22.447,0,40.03-6.875,40.03-15.655c0-0.688-0.119-1.36-0.328-2.021  C93.888,67.087,94.67,59.95,93.068,56.892z M21.369,62.51c-1.501-0.838-3.663-1.503-5.899-2.185  c-0.924-0.283-2.043-0.624-2.521-0.823c-0.105-0.664,0.063-2.383,0.399-3.998c0.015-0.073,0.029-0.146,0.044-0.218  c0.162-0.737-0.306-1.467-1.042-1.629c-0.742-0.164-1.468,0.305-1.63,1.043c-1.247,5.685,0.009,6.612,0.422,6.917  c0.543,0.402,1.529,0.714,3.531,1.323c0.869,0.266,2.354,0.719,3.644,1.199c0.568,0.211,1.097,0.427,1.519,0.633  c0.314,0.154,0.571,0.304,0.737,0.442c-0.425,0.872-2.088,0.976-2.846,0.958c-0.031,0-0.061-0.004-0.093-0.004  c-0.614-0.009-1.25-0.077-1.891-0.188c-3.69-0.634-7.529-2.784-7.812-4.631C7.2,56.577,8.723,50.796,11.19,48.977  c2.075-1.527,7.152-2.644,9.508-1.695c0.749,0.302,1.926,1.33,2.964,2.235c1.642,1.433,3.193,2.786,4.664,2.981  c1.736,0.237,2.667-1.538,3.653-3.412c0.409-0.778,1.495-2.846,1.994-2.846c0,0,0,0,0,0c0.556,0.002,0.586,0.132,0.617,0.258  c0.439,1.855-2.911,7.216-4.763,8.154c-1.753,0.891-4.824-1.324-5.759-2.167c-0.463-0.422-1.155-0.473-1.676-0.125  c-0.522,0.347-0.74,1.005-0.531,1.597l2.031,5.714l0.399,1.127c0.056,0.154,0.138,0.288,0.236,0.406  C23.411,61.617,22.356,62.051,21.369,62.51z M40.549,76.607h-4.105v-4.029h4.105V76.607z M45.95,69.835h-4.104v-4.027h4.104V69.835z   M44.825,57.247c-0.051-1.618-0.229-5.833-0.742-7.363c-0.509-1.523-1.562-3.277-2.678-5.132c-1.265-2.104-2.573-4.28-2.88-5.833  c-0.625-3.154,1.938-12.169,4.537-14.44c0.114-0.098,0.505-0.411,0.708-0.343c0.9,0.308-0.294,4.676-0.805,6.542  c-0.713,2.606-1.385,5.07-1.081,6.81c0.538,3.059,3.981,8.469,7.21,9.357c2.849,0.783,8.651,0.656,11.259-1.323  c1.632-1.239,4.439-5.279,4.894-7.407c0.322-1.519-0.114-3.76-0.577-6.131c-0.348-1.786-1.072-5.5-0.448-6.067  c0.34-0.082,0.751,0.244,1.034,0.532c2.33,2.357,4.162,9.856,3.477,12.624c-0.481,1.942-3.36,6.685-4.744,8.963  c-0.51,0.84-0.901,1.488-1.072,1.81c-0.903,1.691-0.896,5.526-0.812,7.642c-3.196-0.313-6.545-0.487-10.022-0.487  C49.596,56.997,47.174,57.085,44.825,57.247z M60.672,73.3h-4.105v-4.029h4.105V73.3z M90.14,67.713  c-0.185,0.516-0.39,0.978-0.612,1.373c-0.164,0.29-0.335,0.554-0.516,0.756c-0.111,0.125-0.236,0.255-0.373,0.391  c-2.029,1.986-6.721,4.893-9.279,4.506c-0.671-0.102-1.111-0.425-1.415-1.037c0.407-0.656,2.797-1.785,4.104-2.403  c2.017-0.955,3.927-1.86,4.932-3.022c0.126-0.146,0.241-0.293,0.338-0.448c0.132-0.213,0.258-0.465,0.377-0.741  c0.17-0.396,0.325-0.846,0.464-1.324c0.515-1.771,0.809-3.908,0.809-4.965c0-0.756-0.612-1.368-1.368-1.368  c-0.71,0-1.286,0.542-1.354,1.233c-0.004,0.044-0.015,0.089-0.015,0.134c0,0.812-0.194,2.116-0.468,3.293  c-2.456-1.494-5.549-2.808-9.142-3.884l0.314-0.471l1.419-2.13c0.319-0.479,0.305-1.108-0.038-1.573  c-0.343-0.463-0.94-0.662-1.492-0.495c-1.312,0.394-3.735,1.33-5.232,3.188c-0.044,0.055-0.076,0.118-0.114,0.174  c-0.255,0.37-0.433,0.8-0.544,1.283c-0.095,0.411-0.146,0.858-0.176,1.325c-0.038,0.595-0.042,1.222-0.042,1.865  c-0.003,3.161-0.253,4.084-1.106,4.117c-0.224,0.009-0.465-0.021-0.748-0.485c-0.747-1.222-0.813-3.737-0.523-5.954  c0.06-0.458,0.135-0.901,0.223-1.319c0.103-0.485,0.22-0.938,0.352-1.327c0.116-0.348,0.244-0.648,0.377-0.887  c0.991-1.761,7.061-5.186,9.415-5.308c3.182-0.182,10.49,3.191,11.941,5.957C91.606,59.998,91.223,64.695,90.14,67.713z"/>
</svg>