<svg xmlns="http://www.w3.org/2000/svg" xmlns:xlink="http://www.w3.org/1999/xlink" version="1.1" id="Your_Icon" x="0px" y="0px" width="100px" height="100px" viewBox="0 0 100 100" enable-background="new 0 0 100 100" xml:space="preserve">
<path fill="#000000" d="M74.654,84.5h0.348v-8.041c0-8.64,0.613-20.068,0.613-21.355c0-1.261-0.77-2.375-1.483-3.066  c0.714-0.69,1.026-1.805,1.026-3.065s-0.541-2.375-1.254-3.065c0.713-0.691,1.749-1.806,1.749-3.066  c0-1.288-0.651-11.763-0.651-19.664V15.5h-0.348c1.441,0,2.61-1.058,2.61-2.5c0-1.441-1.169-2.5-2.61-2.5H25.346  c-1.442,0-2.61,1.059-2.61,2.5c0,1.442,1.168,2.5,2.61,2.5h1.656v4.845c-1,7.958-1.615,21.045-1.615,22.495  c0,1.26,0.414,2.375,1.127,3.066c-0.713,0.69-1.205,1.805-1.205,3.065s0.452,2.375,1.166,3.065  c-0.714,0.691-1.081,1.806-1.081,3.066c0,1.449,0.608,15.746,1.608,24.451V84.5h-1.656c-1.442,0-2.61,1.059-2.61,2.5  s1.168,2.5,2.61,2.5H50.03h0.067h24.557c1.441,0,2.61-1.059,2.61-2.5S76.096,84.5,74.654,84.5z M68.506,84.5l-2.53-5.244  c-0.139-0.275-0.412-0.559-0.717-0.579c0.84-2.104,1.283-4.427,1.283-6.757c0-4.285-1.47-8.394-4.133-11.52l-7.411-8.768l0,0  l-0.35-0.5c-0.054-0.062,0.506-0.131,0.443-0.201c-0.195-0.223-0.09-0.745-0.09-0.978v-0.065c0-0.104-0.514-0.386,0.105-1.111  l7.535-9.067c2.807-3.293,4.016-6.541,4.016-10.599c0-2.894-0.847-5.611-2.078-7.611h0.617c0.338,0,0.645-0.438,0.788-0.744  l2.357-5.256h3.659v4.02c-1,7.841-2.168,21.819-2.168,23.32c0,1.26,0.186,2.375,0.898,3.066c-0.713,0.69-1.318,1.805-1.318,3.065  s0.396,2.375,1.108,3.065c-0.713,0.691-0.654,1.806-0.654,3.066c0,1.501,1.134,16.774,2.134,25.354V84.5H68.506z M30.002,84.5  v-6.943c1-8.734,1.166-21.109,1.166-22.453c0-1.261-0.541-2.375-1.254-3.066c0.713-0.69,1.139-1.805,1.139-3.065  s-0.483-2.375-1.197-3.065c0.714-0.691,1.323-1.806,1.323-3.066c0-1.344-0.177-12.681-1.177-20.669V15.5h1.771l2.51,5.274  c0.147,0.295,0.448,0.726,0.778,0.726h0.462c-1.232,2-1.929,4.717-1.929,7.611c0,4.126,1.395,7.689,4.151,10.923l7.625,8.723  c0.044,0.081,0.098,0.117,0.159,0.191l0.511,0.125c0.188,0.216,0.961,0.646,0.961,0.81v0.066c0,0.202-0.836,0.67-1.033,0.896  c-0.066,0.075-0.321,0.146-0.387,0.222c-0.039,0.047-0.172,0.096-0.203,0.146l-7.662,8.957c-2.611,3.063-4.132,7.328-4.132,11.696  c0,2.339,0.435,4.615,1.283,6.727c-0.251,0.062-0.472,0.446-0.586,0.685L31.884,84.5H30.002z M63.911,29.111  c0,1.102-0.12,1.997-0.361,3.02c-3.823,0.017-9.198-0.498-15.074-1.673c-4.976-0.995-9.29-0.97-12.236-0.691  c-0.02-0.312-0.034-0.318-0.034-0.635c0-2.969,0.867-5.631,2.36-7.631h22.986C63.045,23.5,63.911,26.142,63.911,29.111z   M62.532,78.247c-0.073-0.416-0.229-1.005-1.083-1.699c-10.114-7.993-11.419-8.075-11.419-8.075c-1.877,0-9.625,7.179-11.095,8.238  c-0.963,0.695-1.225,1.329-1.292,1.683c-0.938-1.981-1.473-4.201-1.473-6.527c0-3.703,1.303-7.442,3.485-10.005l7.704-9.062  c0.046-0.052,0.086-0.106,0.123-0.162c0.02-0.023,0.041-0.046,0.061-0.07c0.262-0.298,0.591-0.673,0.852-1.116  c0.541,0.441,1.106,0.798,1.493,0.798c0.418,0,1.048-0.442,1.635-0.945c0.226,0.425,0.521,0.801,0.788,1.114l0,0l0.36,0.496  l7.747,9.148c2.231,2.621,3.513,6.194,3.513,9.805C63.932,74.135,63.427,76.302,62.532,78.247z"/>
</svg>