<svg xmlns="http://www.w3.org/2000/svg" xmlns:xlink="http://www.w3.org/1999/xlink" version="1.1" x="0px" y="0px" width="100px" height="100px" viewBox="0 0 100 100" enable-background="new 0 0 100 100" xml:space="preserve">
<g id="Layer_1">
</g>
<g id="Layer_2">
	<path fill="#000000" d="M73.4,32h7.2V21.2c0-3.977-3.224-7.2-7.2-7.2h-18v5.4h18V32z"/>
	<polygon fill="#000000" points="59,35.6 66.2,86 87.8,86 95,35.6  "/>
	<path fill="#000000" d="M15.8,86h28.8c5.962,0,10.8-4.834,10.8-10.8H5C5,81.166,9.836,86,15.8,86"/>
	<path fill="#000000" d="M5,57.2V59v1.8h9l14.451,3.164c1.149,0.289,2.347,0.289,3.494,0L46.4,60.8h9V59v-1.8H30.2H5z"/>
	<path fill="#000000" d="M51.8,64.4h-5.011l-14.027,3.071c-0.838,0.204-1.7,0.308-2.561,0.308c-0.863,0-1.725-0.104-2.565-0.308   L13.608,64.4H8.6C6.612,64.4,5,66.014,5,68s1.612,3.6,3.6,3.6h43.2c1.986,0,3.6-1.614,3.6-3.6S53.786,64.4,51.8,64.4"/>
	<path fill="#000000" d="M32,35.6h-3.6c-9.942,0-23.4,8.058-23.4,18h50.4C55.4,43.658,41.94,35.6,32,35.6 M17.6,50H14v-3.6h3.6V50z    M24.8,44.6h-3.6V41h3.6V44.6z M32,50h-3.6v-3.6H32V50z M39.2,44.6h-3.6V41h3.6V44.6z M46.4,50h-3.6v-3.6h3.6V50z"/>
</g>
</svg>