<svg xmlns="http://www.w3.org/2000/svg" xmlns:xlink="http://www.w3.org/1999/xlink" version="1.1" id="Layer_1" x="0px" y="0px" width="100px" height="100px" viewBox="0 0 100 100" enable-background="new 0 0 100 100" xml:space="preserve">
<path fill="#000000" d="M73.748,76.526c-5.308,7.4-13.975,12.235-23.757,12.235c-16.054,0-29.124-13.018-29.216-29.052h3.434h6.099  L15.13,44.591L-0.02,59.71h8.012h0.223h1.319C9.627,81.978,27.704,100,49.991,100c12.907,0,24.392-6.05,31.804-15.459l-3.31-3.296  L73.748,76.526z"/>
<path fill="#000000" d="M93.73,59.755l-0.002,0.003H90.45c0,0,0,0,0-0.003c0-0.073,0.006-0.144,0.006-0.217  c0-22.347-18.117-40.462-40.465-40.462c-13.01,0-24.582,6.15-31.98,15.693l3.445,3.435l4.608,4.59  c5.292-7.539,14.042-12.479,23.927-12.479c16.116,0,29.225,13.11,29.225,29.223c0,0.074-0.005,0.144-0.005,0.217  c0,0.003,0,0.003,0,0.003h-3.563l-0.001-0.003h-5.993L84.83,74.876l15.15-15.121H93.73z"/>
<path fill="#000000" d="M12.988,30.567c7.651-9.97,19.212-16.791,32.374-18.129l-4.499-7.794  c-2.609-4.514-10.037-5.246-20.824,0.981C9.252,11.853,6.122,18.679,8.731,23.194L12.988,30.567z"/>
<path fill="#000000" d="M87.113,30.368l4.142-7.173c2.605-4.515-0.521-11.342-11.309-17.57C69.16-0.603,61.731,0.129,59.123,4.643  l-4.489,7.775C67.815,13.684,79.411,20.441,87.113,30.368z"/>
<path fill="#000000" d="M53.39,36.57c-0.324-0.328-0.778-0.515-1.24-0.515h-4.61c-0.461,0-0.912,0.187-1.241,0.515  c-0.326,0.327-0.513,0.78-0.513,1.245v22.877c0,0.463,0.187,0.915,0.513,1.242c0.133,0.132,0.288,0.244,0.453,0.326l19.413,13.004  c0.293,0.192,0.633,0.296,0.975,0.296c0.124,0,0.25-0.014,0.375-0.041c0.461-0.098,0.866-0.38,1.115-0.785l2.443-3.906  c0.503-0.801,0.277-1.857-0.504-2.384L53.903,57.187V37.815C53.903,37.351,53.716,36.897,53.39,36.57z"/>
</svg>