<svg xmlns="http://www.w3.org/2000/svg" xmlns:xlink="http://www.w3.org/1999/xlink" version="1.1" id="Layer_1" x="0px" y="0px" viewBox="0 0 100 100" enable-background="new 0 0 100 100" xml:space="preserve" height="100px" width="100px">
<g>
	<g>
		<path d="M18.5,54h-1.6V32.4c0-1.6-0.4-2.7-1.3-3.5c-1.1-1-2.7-1.1-3.6-1.1v4.5h-1.6V27c0-0.4,0.3-0.7,0.7-0.8    c0.1,0,3.4-0.5,5.6,1.4c1.3,1.1,1.9,2.7,1.9,4.8V54z"/>
		<path d="M21.8,51.6h-1.6V27.3c0-1.6-0.4-2.7-1.3-3.5c-1.1-1-2.7-1.1-3.6-1.1v4.5h-1.6V22c0-0.4,0.3-0.7,0.7-0.8    c0.1,0,3.4-0.5,5.6,1.4c1.3,1.1,1.9,2.7,1.9,4.8V51.6z"/>
		<path d="M22.2,60.6h-1.6c0-1.3,0.4-2.2,1.1-2.7c0.6-0.4,1.2-0.5,1.7-0.5V32.1c0-2.2-0.9-3.7-2.7-4.3l0.5-1.6    c2.5,0.8,3.9,2.9,3.9,5.8v26.3c0,0.3-0.1,0.5-0.3,0.7c-0.2,0.2-0.5,0.2-0.8,0.1c-0.2-0.1-0.9-0.2-1.3,0.1    C22.3,59.5,22.2,60.1,22.2,60.6z"/>
		<rect x="16.8" y="32.4" width="1.6" height="1.3"/>
		<path d="M15.1,80.6c-2.5,0-5.2-0.8-7.5-3.1c-0.2-0.2-0.2-0.4-0.2-0.6V32.2c0-0.4,0.3-0.7,0.7-0.8c0.1,0,3.4-0.5,5.6,1.4    c1.3,1.1,1.9,2.7,1.9,4.8v17.9c1.1,1.3,5.2,7.3-0.1,17.9L14,72.6c5.4-10.7,0.4-16.1,0.1-16.3C14,56.2,14,56,14,55.8V37.5    c0-1.6-0.4-2.7-1.3-3.5c-1.1-1-2.7-1.1-3.6-1.1v43.6c5.6,5.3,13.5,0.3,14.3-0.3c7.2-7.8,5.1-16.1,5.1-16.2c0,0,0-0.1,0-0.1    L27,48.2c0-0.3-0.3-2.9-2.7-2.9v-1.6c3.2,0,4.3,2.8,4.4,4.4L30,59.7c0.2,0.9,2.1,9.6-5.5,17.7c0,0-0.1,0.1-0.1,0.1    C24.3,77.6,20,80.6,15.1,80.6z"/>
	</g>
	<g>
		<path d="M84.6,54h-1.6V32.4c0-2.1,0.6-3.7,1.9-4.8c2.2-1.9,5.5-1.4,5.6-1.4c0.4,0.1,0.7,0.4,0.7,0.8v5.3h-1.6v-4.5    c-0.9,0-2.5,0.1-3.6,1.1c-0.9,0.8-1.3,1.9-1.3,3.5V54z"/>
		<path d="M81.3,51.6h-1.6V27.3c0-2.1,0.6-3.7,1.9-4.8c2.2-1.9,5.5-1.4,5.6-1.4c0.4,0.1,0.7,0.4,0.7,0.8v5.3h-1.6v-4.5    c-0.9,0-2.5,0.1-3.6,1.1c-0.9,0.8-1.3,1.9-1.3,3.5V51.6z"/>
		<path d="M80.8,60.6h-1.6c0-0.5-0.1-1.1-0.4-1.3c-0.4-0.3-1.1-0.1-1.3,0c-0.3,0.1-0.5,0-0.7-0.1c-0.2-0.2-0.3-0.4-0.3-0.7V32.1    c0-3,1.4-5,3.9-5.8l0.5,1.6c-1.8,0.6-2.7,2-2.7,4.3v25.3c0.5,0,1.1,0.1,1.7,0.5C80.4,58.4,80.8,59.3,80.8,60.6z"/>
		<rect x="82.9" y="32.4" width="1.6" height="1.3"/>
		<path d="M86.3,80.6c-4.9,0-9.2-3-9.3-3c0,0-0.1-0.1-0.1-0.1c-7.7-8.2-5.8-16.9-5.5-17.7L72.8,48c0.1-1.5,1.1-4.3,4.3-4.3v1.6    c-2.4,0-2.7,2.5-2.7,2.8L73,60c0,0,0,0.1,0,0.1c-0.1,0.3-2.1,8.5,5.1,16.2c0.9,0.6,8.7,5.6,14.3,0.3V32.9c-0.9,0-2.5,0.1-3.6,1.1    c-0.9,0.8-1.3,1.9-1.3,3.5v18.3c0,0.2-0.1,0.4-0.2,0.6c-0.2,0.2-5.2,5.6,0.1,16.3l-1.5,0.7c-5.3-10.6-1.2-16.6-0.1-17.9V37.5    c0-2.1,0.6-3.7,1.9-4.8c2.2-1.9,5.5-1.4,5.6-1.4c0.4,0.1,0.7,0.4,0.7,0.8v44.7c0,0.2-0.1,0.4-0.2,0.6    C91.5,79.8,88.8,80.6,86.3,80.6z"/>
	</g>
</g>
<g>
	<g>
		<rect x="32.5" y="32.4" width="1.6" height="1.6"/>
		<path d="M64.5,34h-3v-1.6h3V34z M58.4,34h-3v-1.6h3V34z M52.3,34h-3v-1.6h3V34z M46.3,34h-3v-1.6h3V34z M40.2,34h-3v-1.6h3V34z"/>
		<rect x="67.5" y="32.4" width="1.6" height="1.6"/>
	</g>
	<rect x="29.4" y="28.7" width="1.6" height="8.5"/>
	<rect x="70.4" y="28.7" width="1.6" height="8.5"/>
</g>
</svg>