<svg xmlns="http://www.w3.org/2000/svg" xmlns:xlink="http://www.w3.org/1999/xlink" version="1.1" id="Layer_1" x="0px" y="0px" width="100px" height="100px" viewBox="0 0 100 100" enable-background="new 0 0 100 100" xml:space="preserve">
<path d="M65.707,56.844c0.063-6.699-0.688-12.146-1.68-12.167c-0.99-0.02-1.846,5.395-1.909,12.092  c-0.064,6.699,0.688,12.146,1.678,12.167C64.789,68.957,65.645,63.542,65.707,56.844z M62.779,56.664  c0.055-5.609,0.604-10.146,1.229-10.133c0.628,0.012,1.092,4.571,1.038,10.178c-0.053,5.608-0.604,10.145-1.229,10.132  C63.191,66.828,62.727,62.271,62.779,56.664z"/>
<path d="M60.417,68.933c0,0-2.7-2.661-2.7-12.126c0-9.385,2.033-12.129,2.033-12.129h4.277c0,0-1.913,2.653-1.913,12.767  c0,11.492,1.913,11.492,1.913,11.492L60.417,68.933z"/>
<path fill="none" stroke="#000000" stroke-width="0.75" stroke-miterlimit="10" d="M57.717,44.677"/>
<path d="M36.502,56.847c0.064-6.699-0.688-12.146-1.679-12.167c-0.991-0.02-1.846,5.395-1.91,12.092  c-0.063,6.699,0.688,12.146,1.679,12.167C35.583,68.96,36.439,63.545,36.502,56.847z M33.576,56.667  c0.053-5.609,0.604-10.146,1.229-10.133c0.626,0.012,1.091,4.57,1.037,10.178c-0.053,5.608-0.605,10.145-1.23,10.132  S33.522,62.273,33.576,56.667z"/>
<path d="M26.333,68.939c-2.737-0.495-7.26-2.665-7.26-12.129c0-9.386,4.524-11.621,7.26-12.13c2.105-0.392,8.49,0,8.49,0  s-1.914,2.653-1.914,12.767c0,11.492,1.914,11.492,1.914,11.492S28.439,69.32,26.333,68.939z"/>
<path fill="none" d="M26.333,44.68"/>
<path d="M68.513,56.765c-0.064,6.7,0.689,12.147,1.679,12.168c0.992,0.02,1.848-5.396,1.911-12.093  c0.062-6.699-0.688-12.146-1.68-12.167C69.432,44.652,68.576,50.067,68.513,56.765z M71.441,56.945  c-0.055,5.609-0.606,10.146-1.231,10.133c-0.626-0.013-1.09-4.57-1.038-10.177c0.055-5.609,0.606-10.146,1.23-10.133  C71.029,46.781,71.494,51.339,71.441,56.945z"/>
<path d="M78.683,44.672c2.737,0.495,7.26,2.666,7.26,12.13c0,9.385-4.522,11.621-7.26,12.13c-2.104,0.391-8.491,0-8.491,0  s1.915-2.653,1.915-12.768c0-11.493-1.915-11.493-1.915-11.493S76.576,44.292,78.683,44.672z"/>
<path fill="none" d="M78.683,68.933"/>
<polygon points="21.862,55.052 20.367,57.365 16.283,51.738 17.778,49.424 "/>
<polygon points="20.208,52.736 21.792,54.92 17.938,60.884 16.354,58.7 "/>
<polygon points="83.988,55.808 85.484,53.494 89.567,59.121 88.071,61.435 "/>
<polygon points="85.644,58.123 84.058,55.939 87.912,49.976 89.497,52.159 "/>
<path d="M56.182,56.839c0.063-6.699-0.688-12.146-1.68-12.166c-0.99-0.021-1.846,5.395-1.909,12.092  c-0.064,6.699,0.688,12.146,1.678,12.167C55.264,68.952,56.119,63.537,56.182,56.839z M53.254,56.659  c0.055-5.609,0.604-10.146,1.229-10.133c0.628,0.012,1.092,4.571,1.038,10.178c-0.053,5.608-0.604,10.145-1.229,10.132  C53.666,66.823,53.201,62.266,53.254,56.659z"/>
<path d="M50.892,68.928c0,0-2.7-2.661-2.7-12.126c0-9.385,2.033-12.129,2.033-12.129h4.277c0,0-1.913,2.652-1.913,12.767  c0,11.492,1.913,11.492,1.913,11.492L50.892,68.928z"/>
<path d="M46.622,56.841c0.063-6.699-0.688-12.146-1.68-12.166c-0.99-0.021-1.846,5.395-1.909,12.092  c-0.064,6.699,0.688,12.146,1.678,12.167C45.704,68.954,46.56,63.539,46.622,56.841z M43.694,56.661  c0.055-5.609,0.604-10.146,1.229-10.133c0.628,0.012,1.092,4.571,1.038,10.178c-0.053,5.608-0.604,10.145-1.229,10.132  C44.106,66.825,43.642,62.268,43.694,56.661z"/>
<path d="M41.332,68.93c0,0-2.7-2.661-2.7-12.126c0-9.385,2.033-12.129,2.033-12.129h4.277c0,0-1.913,2.652-1.913,12.767  c0,11.492,1.913,11.492,1.913,11.492L41.332,68.93z"/>
<path fill="none" stroke="#000000" stroke-width="0.75" stroke-miterlimit="10" d="M38.632,44.675"/>
</svg>