<svg xmlns:dc="http://purl.org/dc/elements/1.1/" xmlns:cc="http://creativecommons.org/ns#" xmlns:rdf="http://www.w3.org/1999/02/22-rdf-syntax-ns#" xmlns:svg="http://www.w3.org/2000/svg" xmlns="http://www.w3.org/2000/svg" xmlns:sodipodi="http://sodipodi.sourceforge.net/DTD/sodipodi-0.dtd" xmlns:inkscape="http://www.inkscape.org/namespaces/inkscape" width="100" height="100" id="svg3134" version="1.1" inkscape:version="0.48.3.1 r9886" sodipodi:docname="New document 2">
  <defs id="defs3136"/>
  <sodipodi:namedview id="base" pagecolor="#ffffff" bordercolor="#666666" borderopacity="1.0" inkscape:pageopacity="0.0" inkscape:pageshadow="2" inkscape:zoom="3.3195312" inkscape:cx="74.581842" inkscape:cy="35.024185" inkscape:document-units="px" inkscape:current-layer="layer1" showgrid="false" inkscape:window-width="1317" inkscape:window-height="744" inkscape:window-x="49" inkscape:window-y="24" inkscape:window-maximized="1"/>
  <metadata id="metadata3139">
    <rdf:RDF>
      <cc:Work rdf:about="">
        <dc:format>image/svg+xml</dc:format>
        <dc:type rdf:resource="http://purl.org/dc/dcmitype/StillImage"/>
        <dc:title/>
      </cc:Work>
    </rdf:RDF>
  </metadata>
  <g inkscape:label="Layer 1" inkscape:groupmode="layer" id="layer1" transform="translate(0,-952.36218)">
    <path style="font-size:medium;font-style:normal;font-variant:normal;font-weight:normal;font-stretch:normal;text-indent:0;text-align:start;text-decoration:none;line-height:normal;letter-spacing:normal;word-spacing:normal;text-transform:none;direction:ltr;block-progression:tb;writing-mode:lr-tb;text-anchor:start;baseline-shift:baseline;color:#000000;fill:#000000;fill-opacity:1;stroke:none;stroke-width:0.99999994px;marker:none;visibility:visible;display:inline;overflow:visible;enable-background:accumulate;font-family:Sans;-inkscape-font-specification:Sans" d="m 68.620365,966.22804 c -1.469203,-0.0299 -2.945094,0.043 -4.39364,0.16272 -19.924039,1.65517 -37.937292,16.48232 -38.566417,17.00406 l -0.04056,0 c -2.762051,1.36788 -4.531781,3.2394 -5.573423,4.59687 -1.2761,1.66284 -2.091867,3.1963 -2.562959,4.59672 -0.457646,-0.33624 -0.910444,-0.64945 -1.383175,-0.89494 l -0.04056,-0.0403 -0.04056,0 c 0,0 -0.55172,-0.26191 -1.301821,-0.20346 -0.250038,0.0195 -0.537845,0.099 -0.813645,0.20346 -0.386178,0.14528 -0.725187,0.55507 -1.05772,0.93556 l -0.08139,-0.0807 c 0,0 -3.7737825,2.81292 -4.1495517,7.76977 -0.01961,0.2591 0.010745,0.5143 0,0.773 -0.3067185,0.2495 -1.3774128,1.1099 -2.1561362,2.0746 -0.7852779,0.9726 -1.3092889,1.8508 -1.6272764,2.8475 -0.01558,0.013 -0.024982,0.032 -0.040563,0.04 -0.026326,0.1182 -0.2128199,0.9933 -0.2847717,1.5867 -0.00403,0.035 0.00269,0.09 0,0.1222 -0.0094,0.4104 0.028072,0.8433 0.081394,1.3017 -0.1350658,0.1473 -0.3477782,0.3544 -0.7322643,0.8136 -0.5270735,0.6292 -1.1520749,1.3759 -1.5052391,2.0747 -0.5983134,1.1839 -0.8052369,1.6524 -0.9356823,3.5798 -0.058829,0.8686 0.1336421,1.881 0.4881897,2.9695 l -0.2440881,0.4068 c 0,0 -1.45307172,2.3606 -1.17978384,5.0037 0.34686487,3.3547 1.82624854,6.0019 4.35296944,7.9325 2.5267074,1.9305 6.0576515,3.1504 10.5772775,3.9053 6.807121,1.1368 22.173093,0.3253 29.04686,-0.7323 l 0.203418,-0.04 0.162721,-0.1626 c 0.247621,-0.2603 1.100646,-0.8554 1.749327,-1.3425 0.324327,-0.2438 0.591061,-0.405 0.813632,-0.7323 2.204274,0.2215 5.614093,1.2204 5.614093,1.2204 l 0.325456,0.1222 0.244101,-0.2035 3.457957,-2.6848 c 0.491534,0.2061 1.423604,0.5695 1.423604,0.5695 l 0.366139,0.1627 0.325455,-0.2846 3.132502,-2.563 c 0.122628,0.1915 0.203404,0.3254 0.203404,0.3254 l 0.325456,0.6916 0.65091,-0.4881 2.19682,-1.6679 0.325455,-0.2033 0.772962,-0.6104 30.958908,-21.9261 0.162721,-0.1222 0.04056,-0.1628 c 0,0 3.67776,-8.9524 0.162734,-17.61411 -0.221107,-0.54491 -0.466941,-1.10973 -0.732278,-1.66793 l -0.08139,-0.16272 -0.772948,-1.58643 -0.04056,0 c -0.0054,-0.0134 0.0054,-0.0313 0,-0.0403 -4.232074,-7.68342 -12.412283,-15.68396 -23.432767,-17.20739 -1.461883,-0.20216 -2.924437,-0.33572 -4.39364,-0.36618 z m -0.569544,1.30175 c 1.587332,0.0134 3.17516,0.14749 4.759779,0.36618 12.085457,1.6708 20.723917,11.67263 24.04298,19.85163 3.22735,7.95303 0.01988,16.2171 -0.08139,16.4751 l -30.023226,21.3161 c -0.118196,-0.4144 -0.197172,-0.6873 -0.325455,-1.0576 -0.0027,-0.013 0.0027,-0.032 0,-0.04 l -0.04056,0 c -0.04741,-0.1358 -0.09321,-0.2772 -0.162734,-0.4068 -0.01075,-0.055 -0.02901,-0.064 -0.04056,-0.1223 -0.298163,-1.434 -0.929168,-3.6806 -2.19682,-6.9969 -3.019746,-7.8998 -5.293527,-19.82076 -13.018198,-27.62127 -3.811726,-3.84913 -7.019672,-5.91865 -10.0891,-6.95627 -1.534721,-0.51888 -3.047831,-0.77884 -4.556374,-0.85421 -0.754278,-0.0377 -1.516172,-0.0391 -2.278187,0 -0.762001,0.0391 -1.524123,0.11846 -2.31887,0.20334 -0.721143,0.078 -1.38472,0.18589 -2.034086,0.32544 6.351986,-4.52449 21.241696,-13.89693 36.776407,-14.4412 0.529088,-0.0183 1.057491,-0.0455 1.586592,-0.0403 z M 34.122132,982.7847 c 0.738174,-0.0286 1.451567,-0.0352 2.156136,0 1.409165,0.069 2.778586,0.29562 4.190235,0.77284 2.823326,0.95457 5.836893,2.91162 9.560241,6.67145 7.345516,7.41771 9.639499,19.08001 12.733426,27.17391 0.767051,2.0067 1.265435,3.5542 1.627276,4.8002 -0.01652,-0.013 -0.02418,-0.028 -0.04056,-0.04 -0.976392,-0.7022 -2.274385,-1.3985 -3.742729,-2.034 -0.05668,-0.038 -0.186494,-0.085 -0.244088,-0.1223 -3.885894,-2.5331 -10.005369,-5.6341 -16.191383,-8.7459 -6.27771,-3.1581 -12.529162,-6.2804 -16.272751,-8.6649 -1.841184,-1.1726 -3.813297,-3.37686 -5.776828,-5.53232 -1.169267,-1.28364 -2.344135,-2.53074 -3.539324,-3.57986 0.381974,-1.36094 1.120511,-2.90441 2.481591,-4.67804 0.984022,-1.28236 2.634454,-3.0306 5.288652,-4.31204 0,0 0.04016,2.7e-4 0.04056,0 1.486717,-0.71349 3.275761,-1.31229 5.451359,-1.54582 0.777085,-0.0833 1.540013,-0.13418 2.278187,-0.16272 z m -19.323886,9.96643 c 0.41323,-0.0313 0.732278,0.12236 0.732278,0.12236 1.767943,0.93482 3.714671,2.9549 5.654777,5.08485 1.956117,2.14736 3.925638,4.40136 6.020916,5.73586 3.861557,2.4597 10.119187,5.589 16.394802,8.7461 4.130223,2.0775 7.330151,3.8869 10.74001,5.7764 -1.753598,-0.357 -3.555603,-0.6224 -5.410689,-0.6507 -2.865782,-0.044 -9.96576,-0.9885 -16.76094,-2.3595 -3.39757,-0.6857 -6.710938,-1.463 -9.438189,-2.3187 -2.727252,-0.8557 -4.877397,-1.823 -5.736145,-2.6035 -3.906511,-3.5501 -4.331224,-9.2012 -4.068185,-14.19722 0.06286,-1.19365 0.300675,-1.96165 0.569544,-2.44075 0.268869,-0.47883 0.564816,-0.66391 0.854315,-0.77284 0.14475,-0.0551 0.309754,-0.11188 0.447506,-0.12236 z m -3.051135,2.76616 c -0.02257,0.19812 -0.110674,0.27212 -0.121957,0.4881 -0.269419,5.11691 0.139243,11.27791 4.515691,15.25491 1.211992,1.1015 3.388249,1.9705 6.183637,2.8476 2.795388,0.8772 6.173093,1.7083 9.600924,2.4 6.855675,1.3833 13.86291,2.3122 16.964345,2.3594 1.330967,0.02 2.650853,0.1602 3.946133,0.3663 0.188818,0.029 0.382082,0.048 0.569557,0.081 1.819103,0.4354 3.371366,0.8238 5.003867,1.3423 0.104093,0.034 0.30328,0.097 0.366139,0.1222 0.0411,0.015 0.08113,0.026 0.121956,0.04 0.320526,0.1128 0.642557,0.2431 0.935696,0.3661 0.01853,0.014 0.06299,0.028 0.08139,0.04 1.47522,0.6263 2.750702,1.3386 3.661375,1.9935 0.670615,0.4822 1.131378,0.9465 1.383175,1.3016 8.46e-4,0.015 -0.004,0.059 0,0.081 l 0.04056,0.1628 0.406822,1.7085 -0.08139,0 c 0.0141,0.013 0.02673,0.031 0.04056,0.04 l -0.488176,0.3254 -1.66796,1.3018 c -0.256982,-0.3798 -0.677612,-0.8748 -1.301821,-1.4644 -0.05211,-0.063 -0.105571,-0.139 -0.162721,-0.2034 -0.02592,-0.023 -0.05467,-0.058 -0.08139,-0.081 -0.671998,-0.729 -1.682721,-1.4711 -3.213869,-2.1561 -0.0094,0 0.0094,-0.036 0,-0.04 l -0.04056,0 c -0.09832,-0.048 -0.222826,-0.075 -0.325455,-0.1222 -0.184977,-0.089 -0.373365,-0.1992 -0.569544,-0.2846 -0.0779,-0.031 -0.16444,-0.055 -0.244088,-0.081 -1.758541,-0.7355 -3.943111,-1.3213 -6.671826,-1.5867 -5.470096,-0.5316 -13.439271,-1.8014 -18.266166,-2.5627 -2.304755,-0.3634 -6.459088,-1.6215 -10.292519,-3.1323 -3.833431,-1.5108 -7.453585,-3.3385 -8.624558,-4.5155 -2.567405,-2.5801 -3.8396097,-7.0551 -3.4986412,-11.553 0.1567442,-2.06757 1.0085342,-3.68726 1.8306942,-4.84088 z m -3.0511483,8.46131 c 0.3826863,3.444 1.6570273,6.6496 3.8240963,8.8275 1.580563,1.5885 5.174835,3.3049 9.072065,4.8408 3.897216,1.5359 8.016064,2.8164 10.536606,3.2139 0.918974,0.1448 2.269739,0.3556 3.37659,0.5286 -1.104111,-0.081 -2.220875,-0.1637 -3.37659,-0.2846 -3.122227,-0.3252 -7.339002,-1.3167 -11.065479,-2.4816 -3.726464,-1.165 -7.012822,-2.6031 -8.13637,-3.539 -1.60322,-1.3356 -2.812473,-3.0729 -3.6206913,-4.6783 -0.8082187,-1.6051 -1.2132682,-3.1269 -1.2611375,-3.7425 -0.047278,-0.6065 0.2592118,-1.6934 0.6509105,-2.6848 z m -1.2611375,0.04 c -0.3498198,0.9152 -0.7611015,1.8729 -0.6915942,2.7662 0.07441,0.9578 0.5133735,2.4622 1.3831883,4.1899 0.8698149,1.7276 2.1608777,3.6384 3.9461337,5.1257 1.531269,1.2757 4.830025,2.5563 8.624559,3.7425 3.794547,1.1864 8.042402,2.1818 11.309567,2.5222 6.411258,0.6675 12.490534,0.6915 12.530022,0.6915 l 0.04056,0 c 0.03586,0 2.339205,0.071 5.166587,0.4069 2.36635,0.2803 5.059244,0.7668 6.997282,1.4644 0.271152,0.1101 0.565554,0.2088 0.813645,0.3254 0.0916,0.042 0.198891,0.079 0.284772,0.1223 0.918758,0.455 1.666737,0.9565 2.278186,1.4238 0.198597,0.1518 0.318874,0.3016 0.488177,0.4474 0.266209,0.3108 0.510687,0.6197 0.65091,0.8949 l -2.644312,2.2376 c -0.411483,-0.1772 -4.837197,-2.1035 -7.892294,-2.8884 -0.674563,-0.1733 -1.947883,-0.3255 -3.702045,-0.5287 -1.754163,-0.2033 -3.919741,-0.4162 -6.224334,-0.6509 -4.609146,-0.4695 -9.724265,-0.9819 -12.774097,-1.4238 -3.538075,-0.5124 -7.367611,-1.4336 -10.617973,-2.5629 -3.250362,-1.1291 -5.909007,-2.5377 -7.07865,-3.8237 -1.2549857,-1.3801 -2.4569716,-3.4363 -3.2952362,-5.4919 -0.8382511,-2.0555 -1.3052595,-4.1065 -1.2204539,-5.4104 0.091468,-1.4053 0.5729147,-2.2625 1.6272764,-3.5797 z m -3.4986409,7.8919 c -0.1590945,0.7521 -0.3824983,1.5043 -0.3254553,2.2372 0.1457034,1.8732 1.5822813,5.0146 5.0852337,7.9326 1.5312553,1.2757 4.7893283,2.597 8.5838753,3.7832 3.794547,1.1864 8.042403,2.1818 11.309568,2.5222 6.441492,0.6705 12.751222,0.047 12.814779,0.04 l 0.04056,0 c 0.03559,0 1.990622,-0.068 4.51569,0.081 2.547822,0.152 5.625417,0.5581 7.607509,1.3831 1.407472,0.5858 1.550302,0.6094 1.993416,0.7729 l -2.562959,1.9527 c -0.401772,-0.1209 -3.621484,-1.1265 -5.980232,-1.2611 -1.287759,-0.074 -5.261037,0.036 -9.804329,0.04 -4.543305,0 -9.576573,-0.095 -12.570705,-0.5288 -3.538089,-0.5124 -7.367612,-1.4335 -10.61796,-2.5629 -3.250363,-1.1292 -5.9496904,-2.4969 -7.1193335,-3.7831 -1.2767985,-1.4041 -2.3841604,-3.1576 -3.132502,-4.8003 -0.7483551,-1.6425 -1.1201217,-3.2275 -1.0577331,-4.1492 0.1267921,-1.8736 0.2137601,-1.9048 0.8136315,-3.0917 0.076693,-0.1517 0.2786873,-0.378 0.4068225,-0.5695 z m 1.2611375,0 c 0.1720826,0.5352 0.388717,1.0839 0.610227,1.6272 0.8860668,2.1727 2.1320672,4.3103 3.5393245,5.8578 1.4925997,1.6413 4.3021187,3.0274 7.6481927,4.1899 3.346088,1.1626 7.200915,2.0792 10.821378,2.6036 2.475883,0.3587 6.225825,0.7574 9.967063,1.1389 -2.397833,0.089 -5.694964,0.1075 -9.072064,-0.244 -3.122214,-0.3252 -7.298306,-1.3164 -11.024783,-2.4815 -3.726477,-1.165 -7.053492,-2.6031 -8.1770524,-3.5391 -3.2740148,-2.7274 -4.4980146,-5.7237 -4.5970575,-6.9969 -0.045935,-0.5909 0.1105401,-1.3828 0.2847717,-2.1559 z m -1.8713645,9.7223 c 0.7307331,1.3058 1.6255438,2.6223 2.6443258,3.7425 1.4926002,1.6414 4.2614209,3.0276 7.6075089,4.1902 2.018049,0.7011 4.231524,1.2997 6.468409,1.7898 -1.96623,-0.1959 -3.759532,-0.4274 -4.759778,-0.6915 -3.769928,-0.9963 -8.2520672,-1.9839 -10.6586446,-5.8173 -0.6387417,-1.0174 -1.0397887,-2.1963 -1.3018211,-3.2137 z m -1.2611375,0.1222 c 0.2821794,1.1579 0.6736632,2.5235 1.464542,3.7832 2.7368008,4.3594 7.7100572,5.4036 11.4316052,6.3868 2.015873,0.5326 5.891075,0.8679 9.356836,1.0982 3.465761,0.2307 6.468422,0.3256 6.468422,0.3255 l 0.04056,0 0.04056,0 c 0,0 3.376147,-0.2165 7.037965,-0.4067 1.830896,-0.095 3.699964,-0.1898 5.288638,-0.2442 1.021294,-0.035 1.548112,0 2.19682,0 -0.436506,0.308 -0.881594,0.6332 -1.261137,0.9763 -6.725109,1.0213 -22.165921,1.8339 -28.517987,0.773 -4.399215,-0.7347 -7.7358061,-1.9659 -10.0077475,-3.7018 -2.2719414,-1.7359 -3.507922,-3.9797 -3.8240962,-7.0376 -0.073335,-0.7091 0.1251803,-1.3216 0.2847717,-1.9527 z" id="path4057" inkscape:connector-curvature="0" sodipodi:nodetypes="ccccccccccccccccccccccccccsccccccccccccccccccccccccccccccccscsccccccccsccscccsccccccccccccccccccscccccccsscccsccssccsccccccccccccccccccccccccccccsccscccccccccccccccscccccsccccsccsscccccccccccccccccccssccccsccccsccccccccscccccccccccccccc"/>
  </g>
</svg>