<svg xmlns="http://www.w3.org/2000/svg" xmlns:xlink="http://www.w3.org/1999/xlink" version="1.1" id="Layer_1" x="0px" y="0px" width="100px" height="100px" viewBox="0 0 100 100" enable-background="new 0 0 100 100" xml:space="preserve">
<path d="M58.497,40.264c0.191,0.084,0.398,0.127,0.604,0.127c0.385,0,0.771-0.147,1.064-0.441c0.587-0.587,0.587-1.54,0-2.128  c-0.192-0.192-0.439-0.331-0.704-0.397c-0.808-0.199-1.623,0.29-1.824,1.095C57.456,39.243,57.834,39.977,58.497,40.264z"/>
<path d="M50.297,38.623c0.832,0,1.505-0.48,1.505-1.312S51.129,36,50.297,36h-0.005c-0.832,0-1.502,0.48-1.502,1.312  S49.466,38.623,50.297,38.623z"/>
<path d="M65.756,44.943c0.271,0.203,0.588,0.301,0.901,0.301c0.458,0,0.909-0.208,1.206-0.603c0.477-0.636,0.373-1.525-0.219-2.039  c-0.59-0.517-1.489-0.495-2.056,0.07c-0.586,0.586-0.586,1.539,0,2.127C65.641,44.852,65.7,44.9,65.756,44.943z"/>
<path d="M27.328,59.317c0.092-0.626-0.22-1.267-0.816-1.564c-0.744-0.371-1.647-0.069-2.019,0.673  c-0.104,0.209-0.16,0.444-0.16,0.679c0,0.83,0.674,1.504,1.505,1.504C26.597,60.608,27.224,60.047,27.328,59.317z"/>
<path d="M46.06,83.806c-0.655-0.143-1.349,0.17-1.662,0.799c-0.372,0.743-0.07,1.647,0.673,2.019  c0.209,0.104,0.444,0.159,0.678,0.159c0.832,0,1.505-0.674,1.505-1.504C47.253,84.554,46.741,83.948,46.06,83.806z"/>
<path d="M73.442,51.002c0-0.399-0.16-0.786-0.441-1.069c-0.588-0.586-1.541-0.586-2.129,0c-0.478,0.479-0.566,1.198-0.267,1.768  c0.251,0.479,0.754,0.806,1.333,0.806C72.77,52.506,73.442,51.832,73.442,51.002z"/>
<path d="M68.535,74.621c-0.114,0.114-0.212,0.251-0.284,0.396c-0.372,0.743-0.07,1.646,0.674,2.019  c0.215,0.108,0.443,0.159,0.671,0.159c0.471,0,0.926-0.221,1.214-0.613c0.438-0.589,0.389-1.426-0.144-1.96  C70.077,74.035,69.123,74.035,68.535,74.621z"/>
<path d="M62.165,80.628c-0.581,0.426-0.788,1.221-0.455,1.887c0.264,0.527,0.795,0.832,1.347,0.832c0.227,0,0.456-0.051,0.672-0.159  c0.145-0.072,0.281-0.17,0.396-0.284c0.586-0.588,0.586-1.541,0-2.129C63.591,80.241,62.756,80.192,62.165,80.628z"/>
<path d="M73.466,66.076c-0.741,0-1.358,0.536-1.481,1.243c-0.084,0.467,0.055,0.969,0.416,1.331c0.294,0.293,0.68,0.439,1.064,0.439  s0.771-0.146,1.064-0.439c0.282-0.283,0.441-0.671,0.441-1.07C74.971,66.75,74.297,66.076,73.466,66.076z"/>
<path d="M54.727,83.678c-0.399,0-0.787,0.159-1.069,0.44c-0.587,0.587-0.587,1.542,0,2.13c0.294,0.293,0.68,0.439,1.064,0.439  c0.089,0,0.179-0.007,0.267-0.023c0.706-0.123,1.242-0.74,1.242-1.482C56.23,84.352,55.558,83.678,54.727,83.678z"/>
<path d="M75.588,58.361c-0.122-0.707-0.739-1.244-1.481-1.244c-0.831,0-1.505,0.674-1.505,1.504c0,0.399,0.159,0.787,0.441,1.069  c0.294,0.293,0.68,0.44,1.064,0.44s0.771-0.147,1.064-0.44C75.533,59.328,75.672,58.828,75.588,58.361z"/>
<path d="M28.01,67.37c-0.372-0.744-1.273-1.046-2.019-0.675c-0.678,0.339-0.988,1.121-0.755,1.82  c0.205,0.625,0.789,1.036,1.429,1.036c0.12,0,0.243-0.015,0.366-0.046c0.806-0.2,1.297-1.019,1.095-1.824  C28.099,67.575,28.06,67.467,28.01,67.37z"/>
<path d="M32.716,42.271l-0.004,0.002c-0.588,0.589-0.585,1.539,0.001,2.128c0.293,0.293,0.678,0.439,1.064,0.439  c0.386,0,0.772-0.146,1.066-0.441c0.588-0.589,0.588-1.541,0-2.128C34.256,41.683,33.304,41.683,32.716,42.271z"/>
<path d="M29.67,51.144c0.372-0.743,0.071-1.647-0.672-2.019c-0.743-0.373-1.647-0.071-2.019,0.673l-0.002,0.005  c-0.372,0.742-0.069,1.645,0.674,2.017c0.216,0.106,0.445,0.158,0.67,0.158C28.874,51.978,29.407,51.672,29.67,51.144z"/>
<path d="M30.009,74.726c-0.743,0.372-1.044,1.276-0.672,2.019c0.072,0.146,0.17,0.282,0.285,0.396  c0.294,0.293,0.679,0.439,1.064,0.439s0.77-0.146,1.064-0.439c0.534-0.535,0.583-1.37,0.146-1.96  C31.47,74.602,30.677,74.392,30.009,74.726z"/>
<path d="M36.285,81.025c-0.588,0.588-0.588,1.541,0,2.129c0.07,0.069,0.151,0.136,0.233,0.19c0.257,0.171,0.546,0.253,0.833,0.253  c0.486,0,0.963-0.235,1.253-0.67c0.441-0.66,0.29-1.546-0.329-2.024C37.686,80.442,36.828,80.484,36.285,81.025z"/>
<path d="M40.976,37.241l-0.005,0.002c-0.789,0.263-1.212,1.114-0.949,1.902c0.21,0.63,0.798,1.028,1.429,1.028  c0.158,0,0.319-0.024,0.477-0.078c0.789-0.263,1.215-1.114,0.952-1.902C42.617,37.404,41.763,36.977,40.976,37.241z"/>
<path d="M68.396,51.666c0.202-0.123,0.274-0.384,0.16-0.592c-0.117-0.216-0.386-0.295-0.601-0.178l-15.723,8.575  c-0.527-0.585-1.281-0.96-2.128-0.96c-1.583,0-2.872,1.287-2.872,2.871c0,0.263,0.048,0.512,0.113,0.754l-3.282,1.79  c-0.012,0.007-0.027,0.016-0.039,0.022c-0.486,0.293-0.643,0.925-0.35,1.411c0.293,0.486,0.925,0.644,1.411,0.351l3.336-2.012  c0.474,0.346,1.052,0.556,1.682,0.556c1.584,0,2.871-1.288,2.871-2.872c0-0.138-0.021-0.27-0.04-0.401L68.396,51.666z M51.711,61.72  c-0.155,0.744-0.816,1.305-1.605,1.305c-0.155,0-0.302-0.028-0.445-0.069c-0.645-0.183-1.124-0.747-1.182-1.437  c-0.004-0.045-0.014-0.089-0.014-0.136c0-0.905,0.736-1.641,1.641-1.641c0.377,0,0.719,0.133,0.997,0.346  c0.389,0.301,0.644,0.767,0.644,1.295C51.746,61.498,51.734,61.61,51.711,61.72z"/>
<path d="M72.044,36.034l0.978-1.38l0.404,0.289c0.09,0.063,0.195,0.098,0.304,0.098c0.028,0,0.059-0.003,0.087-0.007  c0.137-0.023,0.259-0.101,0.34-0.214l2.26-3.192l0.682,0.487c0.09,0.063,0.196,0.098,0.304,0.098c0.029,0,0.059-0.003,0.087-0.007  c0.138-0.023,0.26-0.101,0.341-0.214l0.787-1.115c0.167-0.234,0.111-0.559-0.122-0.727l-8.034-5.747  c-0.113-0.08-0.257-0.111-0.392-0.09c-0.138,0.023-0.259,0.1-0.34,0.214l-0.788,1.114c-0.166,0.234-0.111,0.56,0.123,0.727  l0.408,0.292l-2.264,3.197c-0.167,0.233-0.111,0.559,0.122,0.726l0.409,0.293l-1.073,1.389C62.875,30.075,59,28.601,54,28.035  v-2.992c4-1.482,6.793-5.258,6.793-9.682C60.793,9.647,56.191,5,50.479,5c-5.714,0-10.272,4.647-10.272,10.361  c0,4.424,2.793,8.198,6.793,9.682v2.874c-5,0.478-10.028,2.13-14.244,4.673l-1.249-1.714l0.393-0.293  c0.234-0.167,0.28-0.492,0.114-0.726l-2.268-3.197l0.406-0.292c0.233-0.167,0.287-0.492,0.122-0.727l-0.789-1.114  c-0.081-0.114-0.202-0.19-0.34-0.214c-0.136-0.021-0.278,0.01-0.392,0.09L20.72,30.15c-0.234,0.168-0.289,0.492-0.123,0.727  l0.788,1.115c0.081,0.113,0.202,0.19,0.34,0.214c0.028,0.004,0.058,0.007,0.087,0.007c0.108,0,0.214-0.034,0.304-0.098l0.682-0.487  l2.26,3.192c0.081,0.113,0.203,0.19,0.34,0.214c0.028,0.004,0.058,0.007,0.087,0.007c0.108,0,0.214-0.034,0.304-0.098l0.404-0.289  l1.279,1.807c-6.805,6.154-11.089,15.046-11.089,24.922C16.383,79.92,31.464,95,50,95s33.617-15.08,33.617-33.617  C83.617,51.274,79.13,42.199,72.044,36.034z M69.914,25.364c0.167-0.238,0.494-0.292,0.729-0.13l4.977,3.476  c0.236,0.165,0.295,0.491,0.129,0.728c-0.102,0.146-0.264,0.224-0.429,0.224c-0.104,0-0.208-0.03-0.299-0.094l-4.977-3.476  C69.808,25.927,69.749,25.601,69.914,25.364z M70.125,27.547l5.244,3.751l-1.763,2.489l-0.4-0.286  c-0.001-0.001-0.002-0.002-0.003-0.003l-4.432-3.17c-0.001-0.001-0.003-0.001-0.004-0.002l-0.406-0.29L70.125,27.547z M68.59,31.484  l3.582,2.562l-0.933,1.316c-1.136-0.928-2.333-1.783-3.585-2.559L68.59,31.484z M41.276,15.361c0-5.137,4.145-9.316,9.282-9.316  s9.207,4.18,9.207,9.316c0,3.839-1.765,7.142-5.765,8.566V21h1.45c0.453,0,0.55-0.43,0.55-0.859V17.75c0-0.553-0.097-0.75-0.55-0.75  h-9.855C45.142,17,45,17.208,45,17.75v2.391C45,20.882,45.142,21,45.595,21H47v2.927C44,22.502,41.276,19.2,41.276,15.361z   M48,25.376v-1.079V21h5v3.298v1.078v2.541c-1-0.096-1.964-0.151-3.022-0.151c-0.702,0-0.978,0.029-1.978,0.071V25.376z M47.607,19  h-1.568c-0.289,0-0.522-0.211-0.522-0.5S45.75,18,46.039,18h6.271c0.289,0,0.523,0.211,0.523,0.5S52.599,19,52.31,19H47.607z   M22.145,31.003c-0.091,0.063-0.195,0.095-0.3,0.095c-0.164,0-0.326-0.078-0.428-0.224c-0.166-0.236-0.107-0.562,0.129-0.729  l4.977-3.475c0.234-0.163,0.562-0.108,0.728,0.13c0.166,0.236,0.107,0.562-0.129,0.728L22.145,31.003z M26.011,33.498  c-0.001,0.001-0.002,0.002-0.003,0.003l-0.4,0.286l-1.763-2.489l5.244-3.751l1.764,2.489l-0.406,0.29  c-0.001,0.001-0.003,0.001-0.004,0.002L26.011,33.498z M28.213,35.7l-1.172-1.654l3.583-2.562l1.171,1.653l-0.175,0.125  c-0.776,0.509-1.53,1.047-2.26,1.616L28.213,35.7z M19.361,59.501c-0.013,0-0.027,0-0.041-0.002  c-0.288-0.021-0.503-0.273-0.48-0.562c1.169-15.103,12.955-27.152,28.025-28.653c0.292-0.024,0.543,0.181,0.572,0.468  c0.029,0.287-0.181,0.543-0.468,0.572c-14.565,1.45-25.957,13.099-27.087,27.696C19.86,59.293,19.632,59.501,19.361,59.501z   M50,89.595c-15.557,0-28.212-12.656-28.212-28.212S34.444,33.171,50,33.171c15.556,0,28.211,12.656,28.211,28.212  S65.557,89.595,50,89.595z"/>
</svg>