<svg xmlns="http://www.w3.org/2000/svg" xmlns:xlink="http://www.w3.org/1999/xlink" version="1.1" id="Layer_1" x="0px" y="0px" width="100px" height="100px" viewBox="0 0 100 100" enable-background="new 0 0 100 100" xml:space="preserve">
<path fill-rule="evenodd" clip-rule="evenodd" d="M61.063,95.267l-5.763-5.869l4.146-7.135C73.323,78.361,83.5,65.623,83.5,50.5  c0-5.109-1.162-9.946-3.234-14.263l7.986,1.273l3.418-7.527c3.085,6.178,4.83,13.142,4.83,20.517  C96.5,72.269,81.374,90.492,61.063,95.267z M78.188,32.555C72.305,23.497,62.105,17.5,50.5,17.5  c-14.833,0-27.379,9.787-31.536,23.255l-4.801-6.187l-7.88,3.256C11.788,18.587,29.493,4.5,50.5,4.5  c16.599,0,31.141,8.794,39.23,21.976l-3.354,7.385L78.188,32.555z M13.036,38.515l4.948,6.375C17.672,46.715,17.5,48.587,17.5,50.5  c0,18.226,14.774,33,33,33c1.558,0,3.089-0.116,4.589-0.325l-3.869,6.658l6.055,6.166C55.063,96.326,52.802,96.5,50.5,96.5  c-25.405,0-46-20.595-46-46c0-3.014,0.299-5.958,0.853-8.81L13.036,38.515z"/>
</svg>