<svg xmlns="http://www.w3.org/2000/svg" xmlns:xlink="http://www.w3.org/1999/xlink" version="1.1" id="Ebene_1" x="0px" y="0px" width="100px" height="100px" viewBox="0 0 100 100" enable-background="new 0 0 100 100" xml:space="preserve">
<path d="M73.9,17.6c0.6-3.2-1.6-6.3-4.8-6.9c-3.2-0.6-6.3,1.6-6.9,4.8l-5.7,31.1l-0.2,0V11c0-3.3-2.7-6-6-6c-3.3,0-6,2.7-6,6v35.6  l-0.2,0l-5.3-30.3c-0.6-3.2-3.7-5.4-6.9-4.8c-3.2,0.6-5.4,3.7-4.8,6.9l4.2,23.2c-2.9,0.6-5.1,3.2-5.1,6.3v16.6  c0,13,2.2,18.6,3.8,22.7c0.9,2.3,1.6,4,1.6,6.4c0,0.8,0.7,1.5,1.5,1.5s1.5-0.7,1.5-1.5c0-3-0.8-5.1-1.8-7.5  c-1.3-3.4-3.1-7.9-3.5-17.3c1,0.6,2.1,1,3.4,1c3.6,0,6.4-2.9,6.4-6.4v-1.6c2.2,2.2,5.6,3.2,10.8,3.2l3,3.6  c-4.2,2.2-5.7,9.2-5.9,10.1c-0.2,0.8,0.4,1.6,1.2,1.8c0.8,0.2,1.6-0.3,1.8-1.2c0.5-2.2,2.5-8.4,5.7-8.4c0.6,0,1.1-0.3,1.4-0.9  c0.2-0.5,0.2-1.2-0.2-1.6l-5-5.9c-0.3-0.3-0.7-0.5-1.2-0.5c-4.7,0-7.8-0.7-9.5-2.4c-1.1-1.1-1.8-2.7-2-4.8l11.4,0c0,0,0.1,0,0.1,0  c3.9,0,5.1,1.6,5.1,1.7c0.1,0.1,0.1,0.2,0.2,0.2l8.3,9.1c2.5,3.1,3.2,4.6,3.3,4.9c-0.2,6.2-1.4,10.4-2.4,14.1  c-0.9,3.1-1.6,5.8-1.6,9c0,0.8,0.7,1.5,1.5,1.5s1.5-0.7,1.5-1.5c0-2.8,0.7-5.3,1.5-8.2c1.1-3.9,2.3-8.2,2.5-14.8  c0-0.4,0-1.1-1.1-2.9l-1.1-17.2L73.9,17.6z M36,63.2c0,1.9-1.5,3.4-3.4,3.4c-1.9,0-3.4-1.5-3.4-3.4V47.8c0-1.9,1.5-3.4,3.4-3.4  c1.9,0,3.4,1.5,3.4,3.4V63.2z M58.1,54.6c-0.5-0.7-2.5-3-7.6-3c0,0-0.1,0-0.1,0l-11.5,0v-3.8c0-3-2-5.5-4.7-6.2l-4.3-23.8  c-0.1-0.8,0-1.6,0.5-2.2c0.5-0.6,1.1-1.1,1.9-1.2c0.8-0.1,1.6,0,2.2,0.5c0.6,0.5,1.1,1.1,1.2,1.9l5.6,31.6c0.1,0.7,0.7,1.2,1.5,1.2  c0,0,0,0,0,0l3,0c0.8,0,1.5-0.7,1.5-1.5V11c0-1.6,1.3-3,3-3c1.6,0,3,1.3,3,3V48c0,0.8,0.6,1.5,1.4,1.5l3,0.1c0.7,0,1.4-0.5,1.5-1.2  l5.9-32.4c0.3-1.6,1.8-2.7,3.4-2.4c1.6,0.3,2.7,1.8,2.4,3.4l-5.8,33c0,0.1,0,0.2,0,0.4l0.8,12.7L58.1,54.6z"/>
</svg>