<svg xmlns="http://www.w3.org/2000/svg" xmlns:xlink="http://www.w3.org/1999/xlink" version="1.1" id="Your_Icon" x="0px" y="0px" width="100px" height="100px" viewBox="0 0 100 100" enable-background="new 0 0 100 100" xml:space="preserve">
<path fill="#000000" d="M66.343,28.461c0,0-0.019,1.315,0.264,1.759c0,0,0.042,0.387,0.112,0.467  c0.07,0.081,0.268-0.024,0.289,0.157c0.019,0.183-0.26,1.179-0.229,1.371c0.029,0.192,0.233,0.352,0.667,0.341  c0,0,0.081,0.333,0.232,0.413c0.15,0.081,0.464,0.062,0.494,0.455c0,0-0.181,0.14-0.11,0.241c0.071,0.102,0.231,0.143,0.252,0.222  c0.021,0.081,0.081,0.586,0.263,0.697c0.182,0.111,0.564,0.2,0.687,0.2c0,0-1.142,1.049-1.312,2.098  c-0.172,1.049,0.251,1.493-0.172,2.481c-0.424,0.989-0.826,1.997-0.999,2.148c-0.171,0.153-2.813,3.388-3.419,3.116  c-0.605-0.271-1.481-0.513-2.209-1.089c0,0-0.816-0.03,0,0.696c0.817,0.726,1.028,0.788,0.576,1.15  c-0.454,0.363-1.182,0.908-2.845,1.059c0,0-0.605-0.241-1.06-0.454c-0.454-0.212-1.24-0.998-1.301-0.575  c-0.061,0.423,0.272,0.848,0.696,1.028c0.423,0.182,0.638,0.459,0.061,0.788c0,0-0.515,0.515-0.938,0.515s-1.194,0.038-1.18,0.371  s0.431,0.219,0.431,0.219s0.205,0.644,0.431,0.704c0.228,0.06,0.395,0.037,0.395,0.037s0.166,0.34,0.416,0.4  c0.25,0.06,0.446,0.054,0.446,0.054s0,0.34,0.461,0.34c0.462,0,1.687-0.25,1.86-0.417c0.174-0.166,0.545-0.408,0.749-0.408  c0.205,0,0.832-0.483,0.832-0.483s0.998-0.182,1.422-0.272c0.424-0.09,2.24-0.938,2.331-1.149c0.091-0.212-0.091,0.212-0.091,0.212  l0.605,0.121c0,0,0.635-0.81,0.786-0.798c0.151,0.011,0.423,0,0.423,0s0.757,0.949,1,0.919c0.241-0.03,3.358-2.723,3.358-2.723  s2.026,4.205,2.178,4.296c0,0-5.718,4.811-6.264,5.266c-0.544,0.453-1.301,1.42-1.24,2.357c0,0-0.636,0.778-2.058,4.862  C62.212,65.738,61.062,67,61.062,67h-0.242l-0.424,0.826l-0.182,0.263c0,0-2.026,0.735-2.479,0.735  c-0.454,0-1.271,0.292-2.573-0.706c0,0-0.634-0.278-0.877,0.388c0,0-0.454,0.175-0.212,0.344c0.242,0.168,1.997,2.285,5.9,3.07  l0.091,0.274c0,0,2.359,0.906,2.814,0.845c0,0,0.302-0.664,0.302-0.997l-0.151-0.121c0,0,0.363-0.394,0.333-1.816l0.237,0.092  l0.58-1.181l-0.121-0.182c0,0,4.388-4.236,7.595-8.987l5.537-4.295c0,0,1.693,8.29,3.269,9.229  c1.572,0.938,11.339,7.353,11.339,7.353L93,71.587V71.8c0,0-0.779,0.756-2.443,0.816c0,0-0.54,0.272-0.421,0.728  c0,0-0.271,0.24-0.12,0.483c0.152,0.242,2.286,0.907,4.434-0.183c0,0,0.855-0.514,1.128-1.271c0.272-0.756,0.686-0.998,1.168-0.938  c0,0,1.568-1.512,1.54-2.087c-0.032-0.575-0.882-1.061-0.882-1.061s-0.938-0.966-1.515-0.966l-1.058-0.727l-0.272,0.089  c0,0-5.356-3.175-7.839-5.084c0,0-0.694-1.571-2.056-1.631c0,0-0.061-5.689,0.36-6.325c0.425-0.635,2.362-2.48,2.362-2.48  s-0.667-0.516-1.483-2.813c-0.816-2.301-1.512-3.086-1.512-3.086s-2.634-4.51-3.117-7.141c-0.484-2.634-2.118-6.204-7.142-6.869  l0.145-0.258c0,0-0.145-0.044-0.175-0.333c-0.029-0.287,0.016-1.255-0.211-1.52c-0.228-0.264-0.469-0.613-0.477-0.81  c-0.007-0.196-0.605-1.702-2.013-2.383c-1.407-0.68-2.716-0.507-5.418,1.673c0,0-0.626,0.261-0.465,0.423  C65.682,28.207,66.074,28.451,66.343,28.461z"/>
<g>
	<path fill="#000000" d="M50.728,43.645c0,0,1.238-2.738-1.398-4.299c0,0-0.172-0.727-1.051-0.667c0,0-0.62-0.472-1.058,0.133   c0,0-0.499,0.355-0.595,0.57c0,0-0.457,0.206-0.609,0.26c-0.152,0.051-0.435,0.231-0.563,0.447   c-0.129,0.218-0.452,0.087-0.452,0.087s-0.854-0.042-0.927-0.022c-0.073,0.017-0.394,0.167-0.141,0.511   c0,0,0.046,0.167-0.064,0.151c-0.112-0.018-0.331,0.044-0.349,0.16l-0.051,0.13c0,0-0.23-0.051-0.319,0.009   c-0.091,0.061-0.047,0.298-0.194,0.338c-0.146,0.039-0.783,0.206-0.559,0.841c0.138,0.391,0.514,0.639,0.696,0.853   c0.032,0.168,0.031,0.292,0.011,0.388c-0.001,0.001-0.002,0.003-0.005,0.004l0.003,0.004c-0.073,0.337-0.384,0.296-0.384,0.296   c-3.363-1.707-6.455-1.112-6.455-1.112c-0.584-0.772-2.194-0.693-2.194-0.693s0.241-0.183-0.426-0.666   c-0.667-0.481-2.744,0.787-2.744,0.787c-0.136,2.529,1.805,3.793,1.625,3.854c-0.181,0.062-5.06,2.839-5.06,2.839l-2.646,2.055   c-1.531,0.448-4.828,3.447-6.017,4.55c-1.19,1.101-3.739,3.484-3.739,3.484c0.265,0.479,0.531,0.928,0.799,1.356   c-0.167,0.367-0.401,0.871-0.539,1.127c-0.232,0.429-1.594,0.901-2.611,2.834c-1.017,1.934-4.427,4.511-5.056,4.885   c-0.628,0.373-1.36,0.877-2.125,1.203c-0.766,0.327-3.013-0.909-3.013-0.909c-0.696-0.383-0.654,0.142-0.654,0.142   s2.623,2.264,3.117,2.65c0.494,0.384,1.993-0.041,2.856-0.237s0.873,0.148,1.115,0.27c0.242,0.12-1.115,1.604-1.115,1.604   l0.279,0.102l1.346-1.434c0.862-0.196,1.604-0.353,1.646-1.901c0.042-1.55,2.094-3.052,4.13-4.237   c2.037-1.185,2.764-3.101,2.764-3.101l0.03-0.042c2.194,2.533,4.132,3.532,4.856,3.844c-0.2-0.238-0.364-0.917,0.016-2.806   c0.649-3.22,5.704-6.436,7.869-7.72c2.166-1.283,2.025-4.01,7.629-4.96c5.603-0.95,7.294-5.136,7.294-5.136   s0.172-0.253,0.261-0.411c0.424,0.27,1.216,0.653,1.734,0.162c0,0,0.522,1.252,1.661,1.338c1.139,0.084,1.553-0.824,1.673-0.979   c0.12-0.156,0.593-0.658,0.599-0.835C51.627,45.568,51.911,43.484,50.728,43.645z"/>
	<path fill="#000000" d="M23.187,67.206c0,0-0.107-0.033-0.302-0.115C23.027,67.258,23.187,67.206,23.187,67.206z"/>
</g>
</svg>